<svg width="137" height="40" viewBox="0 0 137 40" fill="none" xmlns="http://www.w3.org/2000/svg">
<rect x="0.5" y="0.5" width="135.108" height="39" rx="19.5" fill="white"/>
<path d="M34.2905 19.297C34.3009 18.4931 34.515 17.705 34.9129 17.0059C35.3108 16.3068 35.8796 15.7194 36.5663 15.2983C36.1301 14.677 35.5545 14.1657 34.8854 13.805C34.2163 13.4443 33.4721 13.2441 32.7119 13.2204C31.0902 13.0506 29.518 14.1881 28.6916 14.1881C27.8492 14.1881 26.5768 13.2372 25.2067 13.2654C24.3204 13.2939 23.4567 13.5509 22.6997 14.0113C21.9426 14.4717 21.3181 15.1198 20.8869 15.8924C19.0192 19.1171 20.4124 23.8563 22.2015 26.4629C23.0967 27.7393 24.1428 29.165 25.5117 29.1144C26.8513 29.059 27.3516 28.2627 28.9686 28.2627C30.5705 28.2627 31.0399 29.1144 32.4366 29.0823C33.874 29.059 34.7796 27.8003 35.6433 26.5118C36.2865 25.6023 36.7814 24.5972 37.1098 23.5336C36.2747 23.1814 35.562 22.5918 35.0607 21.8384C34.5593 21.085 34.2915 20.2011 34.2905 19.297Z" fill="#038C73"/>
<path d="M31.6524 11.5062C32.4362 10.568 32.8223 9.36205 32.7288 8.14453C31.5314 8.26994 30.4254 8.8406 29.631 9.74281C29.2427 10.1836 28.9452 10.6963 28.7557 11.2518C28.5662 11.8072 28.4883 12.3945 28.5265 12.98C29.1254 12.9861 29.7179 12.8567 30.2594 12.6014C30.8008 12.3461 31.2771 11.9716 31.6524 11.5062Z" fill="#038C73"/>
<path d="M51.2234 25.8834H46.6521L45.5543 29.1158H43.6181L47.9479 17.1567H49.9596L54.2894 29.1158H52.3202L51.2234 25.8834ZM47.1255 24.3918H50.749L48.9628 19.1459H48.9128L47.1255 24.3918Z" fill="#038C73"/>
<path d="M63.6404 24.7566C63.6404 27.4661 62.1861 29.2069 59.9915 29.2069C59.4356 29.2359 58.8827 29.1082 58.3961 28.8384C57.9096 28.5686 57.5091 28.1677 57.2405 27.6814H57.1989V32.0001H55.4042V20.3965H57.1414V21.8468H57.1744C57.4554 21.3629 57.8627 20.964 58.3529 20.6925C58.8432 20.4211 59.3981 20.2873 59.9585 20.3053C62.1776 20.3053 63.6404 22.0546 63.6404 24.7566ZM61.7957 24.7566C61.7957 22.9913 60.8809 21.8308 59.4851 21.8308C58.1138 21.8308 57.1914 23.0158 57.1914 24.7566C57.1914 26.5134 58.1138 27.6899 59.4851 27.6899C60.8809 27.6899 61.7957 26.5379 61.7957 24.7566Z" fill="#038C73"/>
<path d="M73.264 24.7566C73.264 27.4661 71.8097 29.2069 69.615 29.2069C69.0591 29.2359 68.5062 29.1082 68.0197 28.8384C67.5331 28.5686 67.1326 28.1677 66.864 27.6814H66.8225V32.0001H65.0277V20.3965H66.7649V21.8468H66.7979C67.0789 21.3629 67.4862 20.964 67.9764 20.6925C68.4667 20.4211 69.0216 20.2873 69.582 20.3053C71.8012 20.3053 73.264 22.0546 73.264 24.7566ZM71.4192 24.7566C71.4192 22.9913 70.5044 21.8308 69.1086 21.8308C67.7373 21.8308 66.8149 23.0158 66.8149 24.7566C66.8149 26.5134 67.7373 27.6899 69.1086 27.6899C70.5044 27.6899 71.4192 26.5378 71.4192 24.7566H71.4192Z" fill="#038C73"/>
<path d="M79.6243 25.7837C79.7573 26.9696 80.9126 27.7483 82.4914 27.7483C84.0042 27.7483 85.0925 26.9696 85.0925 25.9003C85.0925 24.972 84.4361 24.4162 82.8818 24.0353L81.3276 23.6619C79.1254 23.1315 78.1031 22.1045 78.1031 20.438C78.1031 18.3746 79.9063 16.9573 82.4669 16.9573C85.001 16.9573 86.7382 18.3746 86.7967 20.438H84.985C84.8765 19.2445 83.8872 18.5241 82.4414 18.5241C80.9956 18.5241 80.0063 19.253 80.0063 20.3138C80.0063 21.1593 80.6382 21.6568 82.1839 22.0377L83.5052 22.3612C85.9658 22.9415 86.9881 23.9271 86.9881 25.6764C86.9881 27.9138 85.2009 29.3151 82.3584 29.3151C79.6988 29.3151 77.9031 27.9467 77.7871 25.7836L79.6243 25.7837Z" fill="#038C73"/>
<path d="M90.8615 18.3333V20.3967H92.5242V21.814H90.8615V26.6207C90.8615 27.3674 91.1945 27.7154 91.9254 27.7154C92.1228 27.712 92.3198 27.6982 92.5158 27.674V29.0828C92.1871 29.1441 91.8531 29.1718 91.5189 29.1656C89.7487 29.1656 89.0583 28.5026 89.0583 26.8116V21.814H87.787V20.3967H89.0583V18.3333H90.8615Z" fill="#038C73"/>
<path d="M93.4872 24.7566C93.4872 22.0132 95.1074 20.2893 97.6341 20.2893C100.169 20.2893 101.782 22.0132 101.782 24.7566C101.782 27.5075 100.178 29.2238 97.6341 29.2238C95.0914 29.2238 93.4872 27.5074 93.4872 24.7566ZM99.9532 24.7566C99.9532 22.8747 99.0883 21.764 97.6341 21.764C96.1798 21.764 95.3159 22.8831 95.3159 24.7566C95.3159 26.646 96.1798 27.7482 97.6341 27.7482C99.0883 27.7482 99.9531 26.646 99.9531 24.7566H99.9532Z" fill="#038C73"/>
<path d="M103.262 20.3967H104.973V21.8808H105.015C105.131 21.4173 105.403 21.0076 105.786 20.7208C106.169 20.4339 106.639 20.2872 107.118 20.3055C107.325 20.3048 107.531 20.3272 107.733 20.3722V22.0463C107.472 21.9667 107.199 21.9302 106.927 21.9381C106.666 21.9276 106.406 21.9734 106.165 22.0725C105.923 22.1716 105.706 22.3216 105.529 22.5122C105.351 22.7027 105.217 22.9294 105.135 23.1766C105.054 23.4238 105.027 23.6856 105.056 23.9442V29.1158H103.262L103.262 20.3967Z" fill="#038C73"/>
<path d="M116.008 26.5547C115.766 28.1376 114.221 29.2238 112.243 29.2238C109.699 29.2238 108.121 27.5244 108.121 24.7979C108.121 22.063 109.708 20.2893 112.167 20.2893C114.587 20.2893 116.108 21.9464 116.108 24.5901V25.2033H109.932V25.3114C109.904 25.6323 109.944 25.9556 110.05 26.2598C110.157 26.5639 110.327 26.842 110.549 27.0756C110.772 27.3092 111.042 27.4929 111.341 27.6146C111.64 27.7362 111.962 27.793 112.284 27.7811C112.709 27.8207 113.134 27.7228 113.498 27.5018C113.862 27.2809 114.144 26.9487 114.304 26.5547L116.008 26.5547ZM109.941 23.9525H114.312C114.328 23.6639 114.284 23.3752 114.183 23.1044C114.082 22.8336 113.926 22.5865 113.725 22.3787C113.523 22.1709 113.281 22.0069 113.013 21.8969C112.745 21.7869 112.457 21.7333 112.167 21.7395C111.875 21.7378 111.585 21.7938 111.315 21.9043C111.045 22.0148 110.799 22.1776 110.592 22.3833C110.385 22.5891 110.221 22.8337 110.109 23.103C109.997 23.3723 109.94 23.661 109.941 23.9525V23.9525Z" fill="#038C73"/>
<path d="M45.85 10.5839H46.6205C46.7531 10.6004 46.8878 10.5893 47.0159 10.5513C47.144 10.5133 47.2629 10.4493 47.3649 10.3632C47.467 10.2772 47.5501 10.1709 47.609 10.0513C47.6678 9.93161 47.7012 9.80107 47.707 9.66791C47.707 9.13795 47.3071 8.79562 46.629 8.79562C46.4931 8.77668 46.3548 8.78509 46.2222 8.82035C46.0896 8.8556 45.9655 8.91699 45.8571 9.00089C45.7487 9.08478 45.6582 9.18949 45.5911 9.30882C45.5239 9.42814 45.4815 9.55968 45.4661 9.69565H44.6201C44.6347 9.44882 44.7001 9.20763 44.8121 8.98708C44.9242 8.76653 45.0807 8.57135 45.2717 8.4137C45.4627 8.25604 45.6842 8.13929 45.9224 8.0707C46.1606 8.00211 46.4104 7.98316 46.6563 8.01502C47.7909 8.01502 48.5898 8.64843 48.5898 9.56022C48.5924 9.86568 48.4899 10.1628 48.2994 10.402C48.1089 10.6412 47.8418 10.808 47.5429 10.8745V10.9422C47.8973 10.9579 48.2311 11.1129 48.4713 11.3733C48.7114 11.6337 48.8385 11.9783 48.8246 12.3318C48.7983 12.5859 48.7215 12.8323 48.5986 13.0564C48.4756 13.2806 48.309 13.478 48.1086 13.6371C47.9081 13.7962 47.6779 13.9138 47.4312 13.983C47.1846 14.0523 46.9266 14.0717 46.6724 14.0402C46.4176 14.0748 46.1584 14.0579 45.9103 13.9906C45.6622 13.9232 45.4303 13.8067 45.2283 13.648C45.0263 13.4893 44.8584 13.2917 44.7347 13.067C44.6109 12.8422 44.5338 12.5949 44.5079 12.3398H45.3671C45.419 12.8895 45.9254 13.2441 46.6724 13.2441C47.4193 13.2441 47.9069 12.8458 47.9069 12.2843C47.9069 11.7149 47.4476 11.3641 46.645 11.3641H45.85V10.5839Z" fill="#038C73"/>
<path d="M49.8007 12.6746C49.8007 11.894 50.3845 11.4439 51.4181 11.38L52.5961 11.3123V10.938C52.5961 10.48 52.2933 10.2213 51.7058 10.2213C51.2267 10.2213 50.8956 10.3967 50.7994 10.7033H49.9686C50.0563 9.95847 50.7598 9.48071 51.7463 9.48071C52.8366 9.48071 53.4515 10.0219 53.4515 10.938V13.9009H52.6244V13.2915H52.5565C52.4186 13.5101 52.2251 13.6883 51.9956 13.8079C51.7661 13.9276 51.5089 13.9843 51.2503 13.9724C51.0677 13.9913 50.8832 13.9719 50.7086 13.9154C50.534 13.8588 50.3733 13.7665 50.2367 13.6442C50.1001 13.5219 49.9908 13.3724 49.9157 13.2054C49.8406 13.0384 49.8014 12.8576 49.8007 12.6746ZM52.5961 12.304V11.9415L51.5341 12.0092C50.9352 12.0491 50.6636 12.2523 50.6636 12.6346C50.6636 13.0249 51.0031 13.252 51.47 13.252C51.6068 13.2658 51.745 13.252 51.8763 13.2115C52.0077 13.171 52.1295 13.1045 52.2346 13.0161C52.3396 12.9276 52.4258 12.819 52.4879 12.6967C52.55 12.5743 52.5868 12.4408 52.5961 12.304Z" fill="#038C73"/>
<path d="M55.7291 10.2849V13.901H54.8709V9.56445H57.7342V10.2848L55.7291 10.2849Z" fill="#038C73"/>
<path d="M62.9354 11.7309C62.9354 13.1087 62.2366 13.9726 61.1388 13.9726C60.8693 13.9909 60.6002 13.9321 60.3631 13.8031C60.126 13.674 59.9308 13.4801 59.8005 13.2442H59.7326V15.3428H58.8744V9.56456H59.7006V10.2812H59.7647C59.8973 10.037 60.0951 9.83417 60.3361 9.695C60.577 9.55584 60.8519 9.48581 61.1303 9.49264C62.2366 9.49262 62.9354 10.3527 62.9354 11.7309ZM62.0527 11.7309C62.0527 10.8149 61.6179 10.2615 60.8908 10.2615C60.1684 10.2615 59.7166 10.8267 59.7166 11.7347C59.7166 12.6385 60.1684 13.2042 60.887 13.2042C61.6179 13.2042 62.0527 12.6507 62.0527 11.7309Z" fill="#038C73"/>
<path d="M64.0785 15.4542V14.7173C64.1714 14.7291 64.265 14.7344 64.3586 14.7333C64.5414 14.7468 64.7228 14.6925 64.868 14.5808C65.0132 14.4691 65.1119 14.3079 65.1451 14.1281L65.2093 13.917L63.6352 9.56445H64.5698L65.6601 13.0089H65.728L66.8145 9.56445H67.7246L66.1034 14.0801C65.7318 15.1354 65.3206 15.4739 64.4341 15.4739C64.3624 15.4739 64.1587 15.4659 64.0785 15.4542Z" fill="#038C73"/>
<path d="M68.3932 12.6704H69.2477C69.3316 13.0527 69.691 13.2521 70.1937 13.2521C70.7652 13.2521 71.116 13.001 71.116 12.6107C71.116 12.1926 70.801 11.9933 70.1937 11.9933H69.5429V11.3283H70.1823C70.7011 11.3283 70.9651 11.1294 70.9651 10.7669C70.9651 10.4485 70.7095 10.2054 70.1823 10.2054C69.7023 10.2054 69.3515 10.4086 69.2958 10.7509H68.4687C68.5305 10.3575 68.7447 10.0041 69.0652 9.76656C69.3856 9.52904 69.7868 9.42643 70.1823 9.48079C71.216 9.48079 71.8073 9.9468 71.8073 10.6794C71.8122 10.8834 71.7466 11.0829 71.6216 11.2445C71.4967 11.4061 71.3198 11.52 71.1207 11.5672V11.635C71.3578 11.6654 71.5753 11.7816 71.7322 11.9615C71.889 12.1414 71.9741 12.3724 71.9714 12.6107C71.9714 13.4351 71.2679 13.9805 70.1937 13.9805C69.2439 13.9805 68.4725 13.5464 68.3932 12.6704Z" fill="#038C73"/>
<path d="M73.2074 13.901V9.56445H74.0581V12.5472H74.126L76.1301 9.56446H76.9808V13.901H76.1301V10.9023H76.066L74.0581 13.901L73.2074 13.901Z" fill="#038C73"/>
<path d="M81.6671 10.2848H80.2977V13.9009H79.4385V10.2848H78.0691V9.56445H81.6671V10.2848Z" fill="#038C73"/>
<path d="M86.2903 12.7301C86.1733 13.1264 85.9205 13.4692 85.5759 13.6985C85.2313 13.9278 84.8168 14.0291 84.405 13.9847C84.1185 13.9923 83.8338 13.9375 83.5706 13.8244C83.3074 13.7112 83.0721 13.5422 82.881 13.3293C82.6898 13.1163 82.5475 12.8644 82.4637 12.5911C82.38 12.3177 82.357 12.0295 82.3961 11.7464C82.358 11.4624 82.3815 11.1736 82.465 10.8994C82.5485 10.6252 82.6901 10.3722 82.8803 10.1574C83.0704 9.94253 83.3046 9.77094 83.567 9.65422C83.8294 9.53749 84.1139 9.47834 84.4012 9.48079C85.6112 9.48079 86.3421 10.3052 86.3421 11.6669V11.9655H83.2714V12.0135C83.2578 12.1727 83.2777 12.3329 83.3299 12.4839C83.3821 12.635 83.4654 12.7734 83.5745 12.8904C83.6836 13.0074 83.816 13.1004 83.9632 13.1633C84.1105 13.2262 84.2693 13.2578 84.4295 13.2558C84.6347 13.2803 84.8425 13.2434 85.0265 13.1498C85.2106 13.0561 85.3626 12.9101 85.4632 12.7301L86.2903 12.7301ZM83.2713 11.3326H85.4669C85.4777 11.1871 85.458 11.041 85.4088 10.9036C85.3597 10.7662 85.2823 10.6406 85.1815 10.5348C85.0808 10.429 84.959 10.3454 84.824 10.2893C84.689 10.2332 84.5437 10.206 84.3974 10.2092C84.2489 10.2072 84.1016 10.2349 83.964 10.2906C83.8264 10.3464 83.7015 10.429 83.5965 10.5338C83.4915 10.6385 83.4087 10.7631 83.3528 10.9003C83.297 11.0376 83.2693 11.1845 83.2714 11.3326H83.2713Z" fill="#038C73"/>
<path d="M89.9288 9.56445H91.8895C92.7402 9.56445 93.2391 9.99425 93.2391 10.6671C93.2405 10.8807 93.1682 11.0881 93.0345 11.2549C92.9007 11.4216 92.7136 11.5375 92.5044 11.5832V11.6509C92.7584 11.6669 92.9965 11.7795 93.1696 11.9656C93.3426 12.1516 93.4374 12.3969 93.4344 12.6506C93.4344 13.4072 92.8638 13.901 91.9093 13.901H89.9288V9.56445ZM90.7795 10.2214V11.3443H91.6302C92.1489 11.3443 92.3969 11.1454 92.3969 10.7786C92.3969 10.4405 92.181 10.2214 91.7254 10.2214L90.7795 10.2214ZM90.7795 11.9735V13.2441H91.7972C92.3045 13.2441 92.5762 13.0207 92.5762 12.6107C92.5762 12.1766 92.2687 11.9735 91.6896 11.9735L90.7795 11.9735Z" fill="#038C73"/>
<rect x="0.5" y="0.5" width="135.108" height="39" rx="19.5" stroke="white"/>
</svg>
