<svg width="32" height="38" viewBox="0 0 32 38" fill="none" xmlns="http://www.w3.org/2000/svg">
<path d="M32 15.9664C32 21.7434 28.9254 26.8038 24.32 29.607C21.8958 31.0826 19.0474 31.9328 16 31.9328C12.9526 31.9328 10.1042 31.0826 7.68 29.607C3.07461 26.8038 0 21.7434 0 15.9664C0 7.1484 7.16344 0 16 0C24.8366 0 32 7.1484 32 15.9664Z" fill="#F65E64"/>
<path d="M16 31.9328C12.9526 31.9328 10.1042 31.0826 7.68 29.607L16 38L24.32 29.607C21.8958 31.0826 19.0474 31.9328 16 31.9328Z" fill="#F65E64"/>
<ellipse cx="16" cy="15.9664" rx="14.08" ry="14.0504" fill="white"/>
<path d="M18.9841 14.1489L13.7061 8.30249L11.9457 9.88457L17.3897 15.915L18.9841 14.1489Z" fill="#038C73"/>
<path d="M18.9843 14.149L11.9041 21.9914L13.6645 23.5735L20.5771 15.9135L18.9843 14.149Z" fill="#F65E64"/>
</svg>
