<svg width="174" height="48" viewBox="0 0 174 48" fill="none" xmlns="http://www.w3.org/2000/svg">
<mask id="path-3-inside-1" fill="white">
<path d="M87.6262 25.1268C84.8634 25.1268 82.6763 27.1958 82.6763 30.0694C82.6763 32.8281 84.8634 35.012 87.6262 35.012C90.389 35.012 92.5761 32.943 92.5761 30.0694C92.5761 27.0808 90.389 25.1268 87.6262 25.1268ZM87.6262 32.943C86.1297 32.943 84.8634 31.6786 84.8634 29.9544C84.8634 28.2303 86.1297 26.9659 87.6262 26.9659C89.1227 26.9659 90.389 28.1153 90.389 29.9544C90.389 31.6786 89.1227 32.943 87.6262 32.943ZM76.9205 25.1268C74.1578 25.1268 71.9706 27.1958 71.9706 30.0694C71.9706 32.8281 74.1578 35.012 76.9205 35.012C79.6833 35.012 81.8705 32.943 81.8705 30.0694C81.8705 27.0808 79.6833 25.1268 76.9205 25.1268ZM76.9205 32.943C75.424 32.943 74.1578 31.6786 74.1578 29.9544C74.1578 28.2303 75.424 26.9659 76.9205 26.9659C78.417 26.9659 79.6833 28.1153 79.6833 29.9544C79.6833 31.6786 78.417 32.943 76.9205 32.943ZM64.1428 26.621V28.69H69.0927C68.9776 29.8395 68.5171 30.7591 67.9415 31.3338C67.2509 32.0234 66.0997 32.8281 64.1428 32.8281C61.0347 32.8281 58.7324 30.4142 58.7324 27.3107C58.7324 24.2072 61.1498 21.7934 64.1428 21.7934C65.7544 21.7934 67.0206 22.483 67.9415 23.2877L69.438 21.7934C68.1718 20.6439 66.5602 19.7244 64.2579 19.7244C60.1137 19.7244 56.5452 23.1727 56.5452 27.3107C56.5452 31.4487 60.1137 34.8971 64.2579 34.8971C66.5602 34.8971 68.1718 34.2074 69.5532 32.7131C70.9345 31.3338 71.395 29.3797 71.395 27.8854C71.395 27.4257 71.395 26.9659 71.2799 26.621H64.1428ZM116.405 28.2303C115.944 27.0808 114.793 25.1268 112.261 25.1268C109.728 25.1268 107.656 27.0808 107.656 30.0694C107.656 32.8281 109.728 35.012 112.491 35.012C114.678 35.012 116.06 33.6327 116.52 32.8281L114.908 31.6786C114.333 32.4832 113.642 33.0579 112.491 33.0579C111.34 33.0579 110.649 32.5982 110.074 31.5637L116.635 28.805L116.405 28.2303ZM109.728 29.8395C109.728 28.0004 111.225 26.9659 112.261 26.9659C113.067 26.9659 113.872 27.4257 114.103 28.0004L109.728 29.8395ZM104.318 34.5522H106.505V20.1841H104.318V34.5522ZM100.864 26.1613C100.289 25.5865 99.3679 25.0118 98.2168 25.0118C95.7994 25.0118 93.4971 27.1958 93.4971 29.9544C93.4971 32.7131 95.6842 34.7821 98.2168 34.7821C99.3679 34.7821 100.289 34.2074 100.749 33.6327H100.864V34.3223C100.864 36.1615 99.8284 37.196 98.2168 37.196C96.9505 37.196 96.0296 36.2764 95.7994 35.4718L93.9575 36.2764C94.5331 37.5408 95.9145 39.15 98.3319 39.15C100.864 39.15 102.936 37.6557 102.936 34.0924V25.3567H100.864V26.1613ZM98.3319 32.943C96.8354 32.943 95.5691 31.6786 95.5691 29.9544C95.5691 28.2303 96.8354 26.9659 98.3319 26.9659C99.8284 26.9659 100.98 28.2303 100.98 29.9544C100.98 31.6786 99.8284 32.943 98.3319 32.943ZM126.42 20.1841H121.24V34.5522H123.427V29.1498H126.42C128.837 29.1498 131.14 27.4257 131.14 24.667C131.14 21.9083 128.837 20.1841 126.42 20.1841ZM126.535 27.0808H123.427V22.1382H126.535C128.147 22.1382 129.068 23.5175 129.068 24.552C128.952 25.8164 128.032 27.0808 126.535 27.0808ZM139.773 25.0118C138.162 25.0118 136.55 25.7015 135.974 27.1958L137.931 28.0004C138.392 27.1958 139.083 26.9659 139.888 26.9659C141.04 26.9659 142.076 27.6555 142.191 28.805V28.9199C141.845 28.69 140.924 28.3452 140.003 28.3452C137.931 28.3452 135.859 29.4947 135.859 31.5637C135.859 33.5177 137.586 34.7821 139.428 34.7821C140.924 34.7821 141.615 34.0924 142.191 33.4028H142.306V34.5522H144.378V29.0349C144.148 26.5061 142.191 25.0118 139.773 25.0118ZM139.543 32.943C138.852 32.943 137.816 32.5982 137.816 31.6786C137.816 30.5292 139.083 30.1843 140.119 30.1843C141.04 30.1843 141.5 30.4142 142.076 30.6441C141.845 32.0234 140.694 32.943 139.543 32.943ZM151.63 25.3567L149.213 31.5637H149.098L146.565 25.3567H144.263L148.062 34.0924L145.874 38.9201H148.062L153.932 25.3567H151.63ZM132.291 34.5522H134.478V20.1841H132.291V34.5522Z"/>
</mask>
<path d="M87.6262 25.1268C84.8634 25.1268 82.6763 27.1958 82.6763 30.0694C82.6763 32.8281 84.8634 35.012 87.6262 35.012C90.389 35.012 92.5761 32.943 92.5761 30.0694C92.5761 27.0808 90.389 25.1268 87.6262 25.1268ZM87.6262 32.943C86.1297 32.943 84.8634 31.6786 84.8634 29.9544C84.8634 28.2303 86.1297 26.9659 87.6262 26.9659C89.1227 26.9659 90.389 28.1153 90.389 29.9544C90.389 31.6786 89.1227 32.943 87.6262 32.943ZM76.9205 25.1268C74.1578 25.1268 71.9706 27.1958 71.9706 30.0694C71.9706 32.8281 74.1578 35.012 76.9205 35.012C79.6833 35.012 81.8705 32.943 81.8705 30.0694C81.8705 27.0808 79.6833 25.1268 76.9205 25.1268ZM76.9205 32.943C75.424 32.943 74.1578 31.6786 74.1578 29.9544C74.1578 28.2303 75.424 26.9659 76.9205 26.9659C78.417 26.9659 79.6833 28.1153 79.6833 29.9544C79.6833 31.6786 78.417 32.943 76.9205 32.943ZM64.1428 26.621V28.69H69.0927C68.9776 29.8395 68.5171 30.7591 67.9415 31.3338C67.2509 32.0234 66.0997 32.8281 64.1428 32.8281C61.0347 32.8281 58.7324 30.4142 58.7324 27.3107C58.7324 24.2072 61.1498 21.7934 64.1428 21.7934C65.7544 21.7934 67.0206 22.483 67.9415 23.2877L69.438 21.7934C68.1718 20.6439 66.5602 19.7244 64.2579 19.7244C60.1137 19.7244 56.5452 23.1727 56.5452 27.3107C56.5452 31.4487 60.1137 34.8971 64.2579 34.8971C66.5602 34.8971 68.1718 34.2074 69.5532 32.7131C70.9345 31.3338 71.395 29.3797 71.395 27.8854C71.395 27.4257 71.395 26.9659 71.2799 26.621H64.1428ZM116.405 28.2303C115.944 27.0808 114.793 25.1268 112.261 25.1268C109.728 25.1268 107.656 27.0808 107.656 30.0694C107.656 32.8281 109.728 35.012 112.491 35.012C114.678 35.012 116.06 33.6327 116.52 32.8281L114.908 31.6786C114.333 32.4832 113.642 33.0579 112.491 33.0579C111.34 33.0579 110.649 32.5982 110.074 31.5637L116.635 28.805L116.405 28.2303ZM109.728 29.8395C109.728 28.0004 111.225 26.9659 112.261 26.9659C113.067 26.9659 113.872 27.4257 114.103 28.0004L109.728 29.8395ZM104.318 34.5522H106.505V20.1841H104.318V34.5522ZM100.864 26.1613C100.289 25.5865 99.3679 25.0118 98.2168 25.0118C95.7994 25.0118 93.4971 27.1958 93.4971 29.9544C93.4971 32.7131 95.6842 34.7821 98.2168 34.7821C99.3679 34.7821 100.289 34.2074 100.749 33.6327H100.864V34.3223C100.864 36.1615 99.8284 37.196 98.2168 37.196C96.9505 37.196 96.0296 36.2764 95.7994 35.4718L93.9575 36.2764C94.5331 37.5408 95.9145 39.15 98.3319 39.15C100.864 39.15 102.936 37.6557 102.936 34.0924V25.3567H100.864V26.1613ZM98.3319 32.943C96.8354 32.943 95.5691 31.6786 95.5691 29.9544C95.5691 28.2303 96.8354 26.9659 98.3319 26.9659C99.8284 26.9659 100.98 28.2303 100.98 29.9544C100.98 31.6786 99.8284 32.943 98.3319 32.943ZM126.42 20.1841H121.24V34.5522H123.427V29.1498H126.42C128.837 29.1498 131.14 27.4257 131.14 24.667C131.14 21.9083 128.837 20.1841 126.42 20.1841ZM126.535 27.0808H123.427V22.1382H126.535C128.147 22.1382 129.068 23.5175 129.068 24.552C128.952 25.8164 128.032 27.0808 126.535 27.0808ZM139.773 25.0118C138.162 25.0118 136.55 25.7015 135.974 27.1958L137.931 28.0004C138.392 27.1958 139.083 26.9659 139.888 26.9659C141.04 26.9659 142.076 27.6555 142.191 28.805V28.9199C141.845 28.69 140.924 28.3452 140.003 28.3452C137.931 28.3452 135.859 29.4947 135.859 31.5637C135.859 33.5177 137.586 34.7821 139.428 34.7821C140.924 34.7821 141.615 34.0924 142.191 33.4028H142.306V34.5522H144.378V29.0349C144.148 26.5061 142.191 25.0118 139.773 25.0118ZM139.543 32.943C138.852 32.943 137.816 32.5982 137.816 31.6786C137.816 30.5292 139.083 30.1843 140.119 30.1843C141.04 30.1843 141.5 30.4142 142.076 30.6441C141.845 32.0234 140.694 32.943 139.543 32.943ZM151.63 25.3567L149.213 31.5637H149.098L146.565 25.3567H144.263L148.062 34.0924L145.874 38.9201H148.062L153.932 25.3567H151.63ZM132.291 34.5522H134.478V20.1841H132.291V34.5522Z" fill="#038C73" stroke="#038C73" stroke-width="2" mask="url(#path-3-inside-1)"/>
<path d="M21.2445 10.299C21.2445 9.9724 21.273 9.71195 21.3246 9.50835L35.115 23.0598L21.4718 36.6828C21.3378 36.439 21.2445 36.106 21.2445 35.7018V10.299Z" fill="#038C73" stroke="#038C73"/>
<path d="M40.4041 27.3839L36.1293 23.1154L40.3661 18.8848L45.822 21.9979C46.5376 22.4062 46.7785 22.8711 46.7785 23.2303C46.7785 23.5887 46.5388 24.0522 45.827 24.4599L40.4041 27.3839Z" fill="#038C73" stroke="#038C73"/>
<path d="M22.0048 37.3339L35.5944 23.7644L39.6134 27.7776L23.3963 37.0941C22.7771 37.3656 22.3349 37.4231 22.0048 37.3339Z" fill="#038C73" stroke="#038C73"/>
<path d="M23.3778 9.12588C23.3785 9.12627 23.3792 9.12665 23.3799 9.12703L39.6109 18.3407L35.5929 22.3527L21.9874 8.87596C22.0793 8.84239 22.1755 8.82217 22.2766 8.81497C22.5555 8.79507 22.9184 8.87145 23.3778 9.12588Z" fill="#038C73" stroke="#038C73"/>
<g opacity="0.2">
<mask id="path-8-inside-2" fill="white">
<path d="M40.3141 27.7706L23.6224 37.1961C22.7015 37.7708 21.8957 37.6559 21.3201 37.1961L21.205 37.311L21.3201 37.426C21.8957 37.8858 22.7015 38.0007 23.6224 37.426L40.3141 27.7706Z"/>
</mask>
<path d="M40.3141 27.7706L23.6224 37.1961C22.7015 37.7708 21.8957 37.6559 21.3201 37.1961L21.205 37.311L21.3201 37.426C21.8957 37.8858 22.7015 38.0007 23.6224 37.426L40.3141 27.7706Z" fill="#038C73"/>
<path d="M40.3141 27.7706L40.8148 28.6362L39.8224 26.8999L40.3141 27.7706ZM23.6224 37.1961L23.1307 36.3253L23.1116 36.3361L23.093 36.3477L23.6224 37.1961ZM21.3201 37.1961L21.9442 36.4148L21.2459 35.857L20.6135 36.4885L21.3201 37.1961ZM21.205 37.311L20.4984 36.6034L19.7897 37.311L20.4984 38.0187L21.205 37.311ZM21.3201 37.426L20.6135 38.1336L20.6527 38.1727L20.696 38.2073L21.3201 37.426ZM23.6224 37.426L23.1217 36.5604L23.1072 36.5688L23.093 36.5776L23.6224 37.426ZM39.8224 26.8999L23.1307 36.3253L24.1141 38.0668L40.8058 28.6414L39.8224 26.8999ZM23.093 36.3477C22.771 36.5487 22.5339 36.5904 22.3787 36.5847C22.2253 36.579 22.082 36.5248 21.9442 36.4148L20.696 37.9774C21.1338 38.3271 21.6811 38.5603 22.3048 38.5833C22.9266 38.6063 23.5529 38.4182 24.1518 38.0444L23.093 36.3477ZM20.6135 36.4885L20.4984 36.6034L21.9116 38.0187L22.0267 37.9037L20.6135 36.4885ZM20.4984 38.0187L20.6135 38.1336L22.0267 36.7183L21.9116 36.6034L20.4984 38.0187ZM20.696 38.2073C21.1338 38.557 21.6811 38.7902 22.3048 38.8132C22.9266 38.8362 23.5529 38.6481 24.1518 38.2743L23.093 36.5776C22.771 36.7786 22.5339 36.8203 22.3787 36.8146C22.2253 36.8089 22.082 36.7547 21.9442 36.6447L20.696 38.2073ZM24.1231 38.2916L40.8148 28.6362L39.8133 26.905L23.1217 36.5604L24.1231 38.2916Z" fill="#038C73" mask="url(#path-8-inside-2)"/>
</g>
<g opacity="0.12">
<mask id="path-10-inside-3" fill="white">
<path d="M21.205 37.1961C20.8596 36.8512 20.7445 36.2765 20.7445 35.5869V35.7018C20.7445 36.3915 20.9747 36.9662 21.3201 37.311V37.1961H21.205Z"/>
</mask>
<path d="M21.205 37.1961C20.8596 36.8512 20.7445 36.2765 20.7445 35.5869V35.7018C20.7445 36.3915 20.9747 36.9662 21.3201 37.311V37.1961H21.205Z" fill="#038C73"/>
<path d="M21.205 37.1961L20.4984 37.9037L20.7912 38.1961H21.205V37.1961ZM21.3201 37.311L20.6135 38.0187L22.3201 39.7227V37.311H21.3201ZM21.3201 37.1961H22.3201V36.1961H21.3201V37.1961ZM21.9115 36.4884C21.8694 36.4463 21.7445 36.2377 21.7445 35.5869H19.7445C19.7445 36.3153 19.8499 37.2561 20.4984 37.9037L21.9115 36.4884ZM19.7445 35.5869V35.7018H21.7445V35.5869H19.7445ZM19.7445 35.7018C19.7445 36.5971 20.0418 37.4478 20.6135 38.0187L22.0267 36.6034C21.9077 36.4846 21.7445 36.1859 21.7445 35.7018H19.7445ZM22.3201 37.311V37.1961H20.3201V37.311H22.3201ZM21.3201 36.1961H21.205V38.1961H21.3201V36.1961Z" fill="#038C73" mask="url(#path-10-inside-3)"/>
</g>
<g opacity="0.12">
<mask id="path-12-inside-4" fill="white">
<path d="M46.0698 24.5521L40.3141 27.7706L40.4292 27.8855L46.0698 24.6671C46.8756 24.2073 47.221 23.6326 47.221 23.0579C47.221 23.6326 46.7605 24.0924 46.0698 24.5521Z"/>
</mask>
<path d="M46.0698 24.5521L40.3141 27.7706L40.4292 27.8855L46.0698 24.6671C46.8756 24.2073 47.221 23.6326 47.221 23.0579C47.221 23.6326 46.7605 24.0924 46.0698 24.5521Z" fill="#038C73"/>
<path d="M46.0698 24.5521L46.5579 25.425L46.5917 25.406L46.6239 25.3846L46.0698 24.5521ZM40.3141 27.7706L39.826 26.8978L38.6713 27.5434L39.6075 28.4782L40.3141 27.7706ZM40.4292 27.8855L39.7226 28.5932L40.2623 29.1321L40.9248 28.7541L40.4292 27.8855ZM46.0698 24.6671L45.5742 23.7985L45.5742 23.7985L46.0698 24.6671ZM45.5817 23.6793L39.826 26.8978L40.8021 28.6434L46.5579 25.425L45.5817 23.6793ZM39.6075 28.4782L39.7226 28.5932L41.1358 27.1779L41.0206 27.063L39.6075 28.4782ZM40.9248 28.7541L46.5654 25.5356L45.5742 23.7985L39.9336 27.017L40.9248 28.7541ZM46.5654 25.5356C47.5769 24.9585 48.221 24.0992 48.221 23.0579H46.221C46.221 23.166 46.1744 23.4561 45.5742 23.7985L46.5654 25.5356ZM46.221 23.0579C46.221 23.0635 46.2207 23.071 46.2135 23.0886C46.2049 23.1094 46.1836 23.1504 46.1329 23.2118C46.0237 23.3443 45.8306 23.5101 45.5157 23.7197L46.6239 25.3846C47.2997 24.9347 48.221 24.2095 48.221 23.0579H46.221Z" fill="#038C73" mask="url(#path-12-inside-4)"/>
</g>
<g opacity="0.25">
<mask id="path-14-inside-5" fill="white">
<path d="M23.6224 8.80472L46.0698 21.5636C46.7605 22.0234 47.2209 22.4831 47.2209 23.0579C47.2209 22.4831 46.8756 21.9084 46.0698 21.4486L23.6224 8.68978C22.0108 7.77022 20.7445 8.45989 20.7445 10.299V10.4139C20.7445 8.68978 22.0108 7.88516 23.6224 8.80472Z"/>
</mask>
<path d="M23.6224 8.80472L46.0698 21.5636C46.7605 22.0234 47.2209 22.4831 47.2209 23.0579C47.2209 22.4831 46.8756 21.9084 46.0698 21.4486L23.6224 8.68978C22.0108 7.77022 20.7445 8.45989 20.7445 10.299V10.4139C20.7445 8.68978 22.0108 7.88516 23.6224 8.80472Z" fill="#038C73"/>
<path d="M23.6224 8.80472L23.1268 9.67328L23.1282 9.6741L23.6224 8.80472ZM46.0698 21.5636L46.6239 20.7311L46.5946 20.7116L46.5639 20.6942L46.0698 21.5636ZM46.0698 21.4486L46.5654 20.5801L46.5639 20.5793L46.0698 21.4486ZM23.6224 8.68978L23.1268 9.55834L23.1282 9.55916L23.6224 8.68978ZM23.1282 9.6741L45.5756 22.433L46.5639 20.6942L24.1165 7.93534L23.1282 9.6741ZM45.5157 22.396C45.8306 22.6056 46.0237 22.7715 46.1329 22.9039C46.1836 22.9654 46.2049 23.0063 46.2135 23.0272C46.2207 23.0447 46.2209 23.0523 46.2209 23.0579H48.2209C48.2209 21.9063 47.2997 21.181 46.6239 20.7311L45.5157 22.396ZM48.2209 23.0579C48.2209 22.0165 47.5768 21.1572 46.5654 20.5801L45.5742 22.3172C46.1743 22.6596 46.2209 22.9497 46.2209 23.0579H48.2209ZM46.5639 20.5793L24.1165 7.8204L23.1282 9.55916L45.5756 22.318L46.5639 20.5793ZM24.118 7.82122C23.1495 7.26862 22.0366 7.06255 21.094 7.58542C20.1388 8.11529 19.7445 9.1769 19.7445 10.299H21.7445C21.7445 9.58199 21.9833 9.3792 22.0642 9.33435C22.1576 9.2825 22.4837 9.19137 23.1268 9.55834L24.118 7.82122ZM19.7445 10.299V10.4139H21.7445V10.299H19.7445ZM21.7445 10.4139C21.7445 9.77806 21.9696 9.54776 22.0824 9.48204C22.1906 9.41904 22.5131 9.32314 23.1268 9.67328L24.118 7.93616C23.12 7.36674 22.0037 7.21337 21.0758 7.75383C20.1526 8.29157 19.7445 9.32566 19.7445 10.4139H21.7445Z" fill="#038C73" mask="url(#path-14-inside-5)"/>
</g>
<path d="M57.6964 16.5059H56.8906V14.2071H57.5813C58.1568 13.7473 58.5022 12.8277 58.5022 11.5633V8.11499H63.1068V14.2071H63.9126V16.5059H63.1068V15.0117H57.8115V16.5059H57.6964ZM59.308 11.5633C59.308 12.5978 59.0777 13.5174 58.6173 14.2071H62.0707V8.9196H59.1929V11.5633H59.308Z" fill="#038C73" stroke="#038C73" stroke-width="0.2" stroke-miterlimit="10"/>
<path d="M70.7043 14.0921C70.0136 14.7817 69.2078 15.1266 68.1718 15.1266C67.1358 15.1266 66.33 14.7817 65.6393 14.0921C64.9486 13.4024 64.6032 12.5978 64.6032 11.5633C64.6032 10.5288 64.9486 9.72417 65.6393 9.0345C66.33 8.34483 67.1358 8 68.1718 8C69.2078 8 70.0136 8.34483 70.7043 9.0345C71.395 9.72417 71.7404 10.5288 71.7404 11.5633C71.7404 12.5978 71.395 13.4024 70.7043 14.0921ZM66.33 13.5173C66.7904 13.9771 67.4811 14.322 68.1718 14.322C68.8625 14.322 69.5532 14.0921 70.0136 13.5173C70.4741 13.0576 70.8194 12.3679 70.8194 11.5633C70.8194 10.7587 70.5892 10.069 70.0136 9.60923C69.5532 9.14945 68.8625 8.80461 68.1718 8.80461C67.4811 8.80461 66.7904 9.0345 66.33 9.60923C65.8695 10.069 65.5242 10.7587 65.5242 11.5633C65.5242 12.3679 65.7544 13.0576 66.33 13.5173Z" fill="#038C73" stroke="#038C73" stroke-width="0.2" stroke-miterlimit="10"/>
<path d="M76.2298 15.1266C75.1938 15.1266 74.388 14.7817 73.6973 14.0921C73.0066 13.4024 72.6613 12.5978 72.6613 11.5633C72.6613 10.5288 73.0066 9.72417 73.6973 9.0345C74.388 8.34483 75.1938 8 76.2298 8C77.2659 8 78.0717 8.34483 78.7624 9.14945L78.1868 9.72417C77.7263 9.14945 77.0357 8.80461 76.2298 8.80461C75.424 8.80461 74.8485 9.0345 74.2729 9.60923C73.6973 10.069 73.4671 10.7587 73.4671 11.5633C73.4671 12.3679 73.6973 13.0576 74.2729 13.5173C74.7334 13.9771 75.424 14.322 76.2298 14.322C77.0357 14.322 77.7263 13.9771 78.3019 13.2875L78.8775 13.8622C78.5321 14.207 78.1868 14.5518 77.7263 14.7817C77.2659 15.0116 76.8054 15.1266 76.2298 15.1266Z" fill="#038C73" stroke="#038C73" stroke-width="0.2" stroke-miterlimit="10"/>
<path d="M82.5612 15.0117H81.6403V8.9196H79.6833V8.11499H84.4031V8.9196H82.4461V15.0117H82.5612Z" fill="#038C73" stroke="#038C73" stroke-width="0.2" stroke-miterlimit="10"/>
<path d="M90.5041 8.11499L87.8565 13.9772C87.5111 14.7818 86.9356 15.2416 86.2449 15.2416C86.0146 15.2416 85.7844 15.2416 85.5542 15.1266L85.7844 14.322C85.8995 14.4369 86.1298 14.4369 86.2449 14.4369C86.4751 14.4369 86.5902 14.4369 86.7053 14.322C86.8204 14.2071 86.9356 14.0921 87.0507 13.8622L87.2809 13.2875L84.9786 8.22993H86.0146L87.7414 12.1381L89.4681 8.11499H90.5041Z" fill="#038C73" stroke="#038C73" stroke-width="0.2" stroke-miterlimit="10"/>
<path d="M91.5402 15.0117V8.11499H96.4901V15.0117H95.5692V8.9196H92.346V15.0117H91.5402Z" fill="#038C73" stroke="#038C73" stroke-width="0.2" stroke-miterlimit="10"/>
<path d="M98.1017 15.0117V8.11499H99.0226V11.1036H102.476V8.11499H103.397V15.0117H102.476V11.9082H99.0226V15.0117H98.1017Z" fill="#038C73" stroke="#038C73" stroke-width="0.2" stroke-miterlimit="10"/>
<path d="M110.649 14.0921C109.959 14.7817 109.153 15.1266 108.117 15.1266C107.081 15.1266 106.275 14.7817 105.584 14.0921C104.893 13.4024 104.548 12.5978 104.548 11.5633C104.548 10.5288 104.893 9.72417 105.584 9.0345C106.275 8.34483 107.081 8 108.117 8C109.153 8 109.959 8.34483 110.649 9.0345C111.34 9.72417 111.685 10.5288 111.685 11.5633C111.57 12.5978 111.225 13.4024 110.649 14.0921ZM106.16 13.5173C106.62 13.9771 107.311 14.322 108.002 14.322C108.692 14.322 109.383 14.0921 109.843 13.5173C110.304 13.0576 110.649 12.3679 110.649 11.5633C110.649 10.7587 110.419 10.069 109.843 9.60923C109.383 9.14945 108.692 8.80461 108.002 8.80461C107.311 8.80461 106.62 9.0345 106.16 9.60923C105.699 10.069 105.354 10.7587 105.354 11.5633C105.354 12.3679 105.699 13.0576 106.16 13.5173Z" fill="#038C73" stroke="#038C73" stroke-width="0.2" stroke-miterlimit="10"/>
<path d="M115.254 15.0117V8.11499H117.786C118.362 8.11499 118.822 8.34488 119.168 8.68971C119.513 9.03455 119.743 9.49433 119.743 9.95411C119.743 10.2989 119.628 10.5288 119.513 10.8737C119.398 11.1036 119.168 11.3334 118.822 11.4484C119.168 11.5633 119.398 11.7932 119.628 12.0231C119.858 12.253 119.974 12.5978 119.974 13.0576C119.974 13.6323 119.743 14.0921 119.398 14.4369C118.938 14.7818 118.477 15.0117 117.901 15.0117H115.254ZM116.175 11.1036H117.786C118.132 11.1036 118.362 10.9886 118.592 10.7587C118.822 10.5288 118.938 10.2989 118.938 10.069C118.938 9.83916 118.707 9.49433 118.592 9.26444C118.362 9.03455 118.132 8.9196 117.786 8.9196H116.175V11.1036ZM116.175 14.2071H118.017C118.362 14.2071 118.592 14.0921 118.822 13.8622C119.053 13.6323 119.168 13.4024 119.168 13.0576C119.168 12.8277 119.053 12.4829 118.822 12.253C118.592 12.0231 118.362 11.9082 118.017 11.9082H116.29V14.2071H116.175Z" fill="#038C73" stroke="#038C73" stroke-width="0.2" stroke-miterlimit="10"/>
<rect x="1.24451" y="0.5" width="172.188" height="46.15" rx="23.075" stroke="#038C73"/>
</svg>
