<svg width="165" height="48" viewBox="0 0 165 48" fill="none" xmlns="http://www.w3.org/2000/svg">
<path d="M38.5486 22.663C38.562 21.6197 38.84 20.5967 39.3564 19.6893C39.8729 18.7818 40.6112 18.0194 41.5025 17.4729C40.9363 16.6665 40.1893 16.0028 39.3208 15.5346C38.4523 15.0664 37.4863 14.8066 36.4996 14.7758C34.3946 14.5555 32.354 16.0319 31.2813 16.0319C30.1879 16.0319 28.5364 14.7977 26.7581 14.8342C25.6077 14.8713 24.4867 15.2048 23.5041 15.8024C22.5215 16.4 21.7109 17.2412 21.1512 18.244C18.7269 22.4296 20.5352 28.5809 22.8575 31.9641C24.0194 33.6208 25.3773 35.4714 27.1541 35.4058C28.8927 35.3338 29.5421 34.3002 31.6409 34.3002C33.7201 34.3002 34.3294 35.4058 36.1422 35.364C38.0079 35.3338 39.1834 33.7 40.3045 32.0276C41.1393 30.8472 41.7817 29.5425 42.2079 28.162C41.1239 27.7048 40.199 26.9396 39.5482 25.9617C38.8975 24.9838 38.5498 23.8366 38.5486 22.663Z" fill="#038C73"/>
<path d="M35.1244 12.5508C36.1417 11.333 36.6429 9.76779 36.5215 8.1875C34.9674 8.35028 33.5318 9.09097 32.5008 10.262C31.9967 10.8341 31.6106 11.4996 31.3646 12.2206C31.1186 12.9416 31.0175 13.7038 31.0671 14.4637C31.8445 14.4717 32.6135 14.3037 33.3163 13.9724C34.0191 13.641 34.6373 13.1549 35.1244 12.5508Z" fill="#038C73"/>
<path d="M60.5268 31.2117H54.5935L53.1686 35.4073H50.6554L56.2754 19.8848H58.8865L64.5065 35.4073H61.9505L60.5268 31.2117ZM55.208 29.2757H59.9111L57.5926 22.4666H57.5278L55.208 29.2757Z" fill="#038C73"/>
<path d="M76.6437 29.7493C76.6437 33.2661 74.7561 35.5257 71.9076 35.5257C71.186 35.5633 70.4683 35.3975 69.8368 35.0474C69.2053 34.6972 68.6855 34.1768 68.3368 33.5457H68.2829V39.1511H65.9534V24.0901H68.2082V25.9724H68.2511C68.6158 25.3443 69.1444 24.8266 69.7808 24.4743C70.4171 24.122 71.1373 23.9483 71.8647 23.9717C74.745 23.9717 76.6437 26.2422 76.6437 29.7493ZM74.2493 29.7493C74.2493 27.458 73.0619 25.9517 71.2502 25.9517C69.4703 25.9517 68.2731 27.4898 68.2731 29.7493C68.2731 32.0296 69.4703 33.5567 71.2502 33.5567C73.0619 33.5567 74.2493 32.0613 74.2493 29.7493Z" fill="#038C73"/>
<path d="M89.1347 29.7493C89.1347 33.2662 87.2471 35.5257 84.3986 35.5257C83.677 35.5633 82.9594 35.3976 82.3279 35.0474C81.6963 34.6972 81.1765 34.1768 80.8278 33.5457H80.7739V39.1512H78.4444V24.0902H80.6992V25.9725H80.7421C81.1068 25.3444 81.6354 24.8267 82.2717 24.4744C82.9081 24.1221 83.6283 23.9484 84.3557 23.9718C87.2361 23.9718 89.1347 26.2423 89.1347 29.7493ZM86.7403 29.7493C86.7403 27.4581 85.5529 25.9517 83.7412 25.9517C81.9613 25.9517 80.7641 27.4898 80.7641 29.7493C80.7641 32.0296 81.9613 33.5567 83.7412 33.5567C85.5529 33.5567 86.7403 32.0614 86.7403 29.7493H86.7403Z" fill="#038C73"/>
<path d="M97.3903 31.0823C97.5629 32.6217 99.0625 33.6323 101.112 33.6323C103.075 33.6323 104.488 32.6216 104.488 31.2337C104.488 30.0288 103.636 29.3074 101.618 28.813L99.6011 28.3284C96.7427 27.6399 95.4158 26.3069 95.4158 24.1438C95.4158 21.4656 97.7563 19.626 101.08 19.626C104.369 19.626 106.624 21.4656 106.7 24.1438H104.348C104.207 22.5947 102.923 21.6597 101.047 21.6597C99.1701 21.6597 97.886 22.6057 97.886 23.9827C97.886 25.0801 98.7062 25.7258 100.713 26.2202L102.428 26.6401C105.621 27.3933 106.948 28.6726 106.948 30.9431C106.948 33.8471 104.629 35.666 100.939 35.666C97.487 35.666 95.1562 33.8898 95.0056 31.0822L97.3903 31.0823Z" fill="#038C73"/>
<path d="M111.976 21.4119V24.0902H114.134V25.9298H111.976V32.1688C111.976 33.138 112.408 33.5897 113.357 33.5897C113.613 33.5852 113.869 33.5673 114.123 33.5359V35.3645C113.696 35.444 113.263 35.48 112.829 35.472C110.531 35.472 109.635 34.6114 109.635 32.4165V25.9298H107.985V24.0902H109.635V21.4119H111.976Z" fill="#038C73"/>
<path d="M115.384 29.7493C115.384 26.1885 117.487 23.951 120.766 23.951C124.057 23.951 126.15 26.1885 126.15 29.7493C126.15 33.3199 124.068 35.5477 120.766 35.5477C117.466 35.5477 115.384 33.3199 115.384 29.7493ZM123.776 29.7493C123.776 27.3067 122.654 25.8651 120.766 25.8651C118.879 25.8651 117.757 27.3177 117.757 29.7493C117.757 32.2017 118.879 33.6324 120.766 33.6324C122.654 33.6324 123.776 32.2017 123.776 29.7493H123.776Z" fill="#038C73"/>
<path d="M128.071 24.0902H130.292V26.0164H130.346C130.497 25.4148 130.85 24.8832 131.347 24.5108C131.844 24.1384 132.455 23.9481 133.076 23.9718C133.345 23.9708 133.612 23.9999 133.874 24.0584V26.2313C133.535 26.128 133.182 26.0806 132.828 26.0909C132.489 26.0772 132.152 26.1367 131.839 26.2653C131.525 26.3939 131.244 26.5886 131.013 26.836C130.783 27.0833 130.608 27.3775 130.503 27.6984C130.397 28.0192 130.362 28.3591 130.4 28.6947V35.4073H128.071L128.071 24.0902Z" fill="#038C73"/>
<path d="M144.615 32.0833C144.301 34.1378 142.295 35.5477 139.728 35.5477C136.427 35.5477 134.377 33.3419 134.377 29.803C134.377 26.2532 136.438 23.951 139.63 23.951C142.77 23.951 144.745 26.1019 144.745 29.5333V30.3292H136.729V30.4695C136.692 30.886 136.744 31.3056 136.882 31.7004C137.02 32.0952 137.241 32.4562 137.53 32.7594C137.819 33.0626 138.169 33.301 138.557 33.4589C138.945 33.6168 139.363 33.6905 139.782 33.6751C140.332 33.7265 140.885 33.5994 141.357 33.3126C141.829 33.0258 142.196 32.5947 142.403 32.0833L144.615 32.0833ZM136.74 28.7056H142.414C142.435 28.3311 142.378 27.9564 142.247 27.6049C142.115 27.2533 141.913 26.9327 141.651 26.663C141.39 26.3933 141.075 26.1803 140.728 26.0376C140.38 25.8948 140.006 25.8253 139.63 25.8333C139.251 25.8311 138.875 25.9037 138.524 26.0472C138.173 26.1906 137.854 26.4019 137.585 26.669C137.316 26.936 137.103 27.2535 136.958 27.603C136.813 27.9526 136.739 28.3273 136.74 28.7056V28.7056Z" fill="#038C73"/>
<path d="M53.5524 11.3538H54.5525C54.7246 11.3752 54.8994 11.3608 55.0657 11.3115C55.232 11.2622 55.3862 11.1791 55.5187 11.0674C55.6512 10.9557 55.759 10.8178 55.8355 10.6625C55.9119 10.5072 55.9552 10.3377 55.9627 10.1649C55.9627 9.47702 55.4436 9.03268 54.5635 9.03268C54.3871 9.00811 54.2076 9.01902 54.0355 9.06478C53.8634 9.11054 53.7022 9.19022 53.5616 9.29912C53.4209 9.40801 53.3035 9.54391 53.2163 9.6988C53.1292 9.85368 53.074 10.0244 53.0541 10.2009H51.9561C51.975 9.88052 52.0598 9.56746 52.2053 9.28119C52.3508 8.99493 52.5538 8.7416 52.8017 8.53697C53.0496 8.33234 53.3371 8.18079 53.6463 8.09176C53.9555 8.00274 54.2798 7.97814 54.599 8.0195C56.0716 8.0195 57.1085 8.84163 57.1085 10.0251C57.1119 10.4216 56.9789 10.8072 56.7316 11.1177C56.4843 11.4282 56.1377 11.6447 55.7497 11.731V11.8189C56.2097 11.8393 56.643 12.0404 56.9547 12.3784C57.2664 12.7164 57.4313 13.1637 57.4133 13.6225C57.3792 13.9524 57.2795 14.2722 57.1199 14.5631C56.9603 14.854 56.7441 15.1102 56.4839 15.3168C56.2238 15.5233 55.9249 15.6759 55.6048 15.7658C55.2847 15.8556 54.9498 15.8808 54.6198 15.8399C54.2891 15.8849 53.9527 15.863 53.6307 15.7755C53.3087 15.6881 53.0076 15.5369 52.7454 15.3309C52.4833 15.125 52.2654 14.8685 52.1047 14.5768C51.9441 14.285 51.844 13.964 51.8104 13.6329H52.9256C52.9929 14.3464 53.6503 14.8067 54.6198 14.8067C55.5893 14.8067 56.2222 14.2897 56.2222 13.5609C56.2222 12.8218 55.626 12.3665 54.5843 12.3665H53.5524V11.3538Z" fill="#038C73"/>
<path d="M58.6802 14.0675C58.6802 13.0543 59.438 12.4702 60.7796 12.3872L62.3086 12.2993V11.8135C62.3086 11.219 61.9156 10.8833 61.153 10.8833C60.5311 10.8833 60.1015 11.111 59.9766 11.5089H58.8981C59.012 10.5421 59.9252 9.922 61.2056 9.922C62.6207 9.922 63.4189 10.6245 63.4189 11.8135V15.6593H62.3453V14.8683H62.2572C62.0783 15.152 61.827 15.3833 61.5292 15.5386C61.2313 15.6939 60.8975 15.7675 60.5617 15.752C60.3248 15.7766 60.0853 15.7514 59.8587 15.678C59.6321 15.6047 59.4235 15.4847 59.2462 15.326C59.0689 15.1673 58.927 14.9733 58.8295 14.7566C58.732 14.5398 58.6812 14.3051 58.6802 14.0675ZM62.3086 13.5865V13.116L60.9301 13.2038C60.1528 13.2557 59.8003 13.5194 59.8003 14.0156C59.8003 14.5222 60.2409 14.817 60.8469 14.817C61.0245 14.8349 61.2039 14.8171 61.3743 14.7644C61.5448 14.7118 61.703 14.6256 61.8393 14.5108C61.9757 14.396 62.0875 14.255 62.1681 14.0962C62.2487 13.9374 62.2965 13.7641 62.3086 13.5865Z" fill="#038C73"/>
<path d="M66.3751 10.9656V15.6592H65.2612V10.0306H68.9777V10.9656L66.3751 10.9656Z" fill="#038C73"/>
<path d="M75.7287 12.8425C75.7287 14.6308 74.8216 15.752 73.3967 15.752C73.047 15.7758 72.6976 15.6995 72.3899 15.532C72.0822 15.3645 71.8288 15.1128 71.6597 14.8066H71.5716V17.5306H70.4576V10.0306H71.5299V10.9608H71.6132C71.7853 10.6439 72.042 10.3805 72.3548 10.1999C72.6676 10.0193 73.0244 9.92837 73.3857 9.93724C74.8216 9.9372 75.7287 11.0535 75.7287 12.8425ZM74.5829 12.8425C74.5829 11.6535 74.0186 10.9351 73.0748 10.9351C72.1372 10.9351 71.5508 11.6688 71.5508 12.8474C71.5508 14.0205 72.1371 14.7547 73.0699 14.7547C74.0186 14.7547 74.5829 14.0363 74.5829 12.8425Z" fill="#038C73"/>
<path d="M77.2123 17.6752V16.7188C77.3329 16.7341 77.4544 16.741 77.5759 16.7396C77.8132 16.7571 78.0487 16.6866 78.2371 16.5416C78.4255 16.3967 78.5536 16.1874 78.5968 15.954L78.68 15.68L76.637 10.0306H77.8501L79.2652 14.5014H79.3533L80.7635 10.0306H81.9448L79.8406 15.8918C79.3583 17.2614 78.8245 17.7009 77.6739 17.7009C77.5808 17.7009 77.3164 17.6905 77.2123 17.6752Z" fill="#038C73"/>
<path d="M82.8127 14.062H83.9218C84.0307 14.5582 84.4972 14.817 85.1496 14.817C85.8914 14.817 86.3468 14.491 86.3468 13.9845C86.3468 13.4419 85.9379 13.1831 85.1496 13.1831H84.3049V12.32H85.1349C85.8082 12.32 86.1509 12.0619 86.1509 11.5913C86.1509 11.1781 85.8192 10.8625 85.1349 10.8625C84.5118 10.8625 84.0564 11.1262 83.9842 11.5705H82.9107C82.9909 11.06 83.2689 10.6012 83.6849 10.2929C84.1008 9.98461 84.6215 9.85142 85.1349 9.92198C86.4765 9.92198 87.2441 10.5268 87.2441 11.4778C87.2503 11.7426 87.1653 12.0015 87.003 12.2113C86.8408 12.421 86.6113 12.5689 86.3529 12.6301V12.718C86.6606 12.7576 86.943 12.9084 87.1465 13.1419C87.35 13.3753 87.4606 13.6752 87.4571 13.9845C87.4571 15.0545 86.5439 15.7624 85.1496 15.7624C83.9169 15.7624 82.9156 15.199 82.8127 14.062Z" fill="#038C73"/>
<path d="M89.0613 15.6592V10.0306H90.1655V13.9021H90.2536L92.8549 10.0306H93.959V15.6593H92.8549V11.7671H92.7716L90.1655 15.6593L89.0613 15.6592Z" fill="#038C73"/>
<path d="M100.042 10.9656H98.2643V15.6592H97.1491V10.9656H95.3716V10.0306H100.042V10.9656Z" fill="#038C73"/>
<path d="M106.042 14.1395C105.891 14.6539 105.562 15.0988 105.115 15.3964C104.668 15.6941 104.13 15.8255 103.595 15.7679C103.224 15.7777 102.854 15.7067 102.512 15.5598C102.171 15.4129 101.865 15.1936 101.617 14.9172C101.369 14.6407 101.184 14.3138 101.076 13.959C100.967 13.6042 100.937 13.2301 100.988 12.8626C100.938 12.494 100.969 12.1191 101.077 11.7633C101.186 11.4074 101.37 11.079 101.616 10.8001C101.863 10.5213 102.167 10.2986 102.508 10.1471C102.848 9.99557 103.218 9.9188 103.59 9.92197C105.161 9.92197 106.11 10.992 106.11 12.7595V13.1471H102.124V13.2093C102.106 13.4159 102.132 13.6239 102.2 13.82C102.268 14.016 102.376 14.1957 102.517 14.3476C102.659 14.4994 102.831 14.6201 103.022 14.7018C103.213 14.7835 103.419 14.8243 103.627 14.8218C103.894 14.8536 104.163 14.8057 104.402 14.6842C104.641 14.5627 104.838 14.3731 104.969 14.1395L106.042 14.1395ZM102.124 12.3255H104.974C104.988 12.1367 104.962 11.9471 104.898 11.7687C104.835 11.5904 104.734 11.4274 104.603 11.29C104.473 11.1527 104.315 11.0442 104.139 10.9714C103.964 10.8986 103.775 10.8632 103.586 10.8674C103.393 10.8648 103.202 10.9007 103.023 10.9731C102.844 11.0455 102.682 11.1528 102.546 11.2887C102.41 11.4246 102.302 11.5864 102.23 11.7645C102.157 11.9426 102.121 12.1334 102.124 12.3255H102.124Z" fill="#038C73"/>
<path d="M110.765 10.0306H113.31C114.414 10.0306 115.062 10.5884 115.062 11.4618C115.064 11.739 114.97 12.0083 114.796 12.2247C114.623 12.4411 114.38 12.5916 114.108 12.6508V12.7387C114.438 12.7594 114.747 12.9057 114.972 13.1472C115.196 13.3886 115.319 13.7069 115.315 14.0363C115.315 15.0183 114.575 15.6592 113.336 15.6592H110.765V10.0306ZM111.869 10.8832V12.3407H112.973C113.647 12.3407 113.969 12.0826 113.969 11.6065C113.969 11.1677 113.688 10.8832 113.097 10.8832L111.869 10.8832ZM111.869 13.1574V14.8066H113.19C113.849 14.8066 114.201 14.5167 114.201 13.9845C114.201 13.4211 113.802 13.1574 113.051 13.1574L111.869 13.1574Z" fill="#038C73"/>
<rect x="0.5" y="0.5" width="163.745" height="46.1512" rx="23.0756" stroke="#038C73"/>
</svg>
