<svg width="174" height="48" viewBox="0 0 174 48" fill="none" xmlns="http://www.w3.org/2000/svg">
<path d="M87.6262 25.1268C84.8634 25.1268 82.6763 27.1958 82.6763 30.0694C82.6763 32.8281 84.8634 35.012 87.6262 35.012C90.389 35.012 92.5761 32.943 92.5761 30.0694C92.5761 27.0808 90.389 25.1268 87.6262 25.1268ZM87.6262 32.943C86.1297 32.943 84.8634 31.6786 84.8634 29.9544C84.8634 28.2303 86.1297 26.9659 87.6262 26.9659C89.1227 26.9659 90.389 28.1153 90.389 29.9544C90.389 31.6786 89.1227 32.943 87.6262 32.943ZM76.9205 25.1268C74.1578 25.1268 71.9706 27.1958 71.9706 30.0694C71.9706 32.8281 74.1578 35.012 76.9205 35.012C79.6833 35.012 81.8705 32.943 81.8705 30.0694C81.8705 27.0808 79.6833 25.1268 76.9205 25.1268ZM76.9205 32.943C75.424 32.943 74.1578 31.6786 74.1578 29.9544C74.1578 28.2303 75.424 26.9659 76.9205 26.9659C78.417 26.9659 79.6833 28.1153 79.6833 29.9544C79.6833 31.6786 78.417 32.943 76.9205 32.943ZM64.1428 26.621V28.69H69.0927C68.9776 29.8395 68.5171 30.7591 67.9415 31.3338C67.2509 32.0234 66.0997 32.8281 64.1428 32.8281C61.0347 32.8281 58.7324 30.4142 58.7324 27.3107C58.7324 24.2072 61.1498 21.7934 64.1428 21.7934C65.7544 21.7934 67.0206 22.483 67.9415 23.2877L69.438 21.7934C68.1718 20.6439 66.5602 19.7244 64.2579 19.7244C60.1137 19.7244 56.5452 23.1727 56.5452 27.3107C56.5452 31.4487 60.1137 34.8971 64.2579 34.8971C66.5602 34.8971 68.1718 34.2074 69.5532 32.7131C70.9345 31.3338 71.395 29.3797 71.395 27.8854C71.395 27.4257 71.395 26.9659 71.2799 26.621H64.1428ZM116.405 28.2303C115.944 27.0808 114.793 25.1268 112.261 25.1268C109.728 25.1268 107.656 27.0808 107.656 30.0694C107.656 32.8281 109.728 35.012 112.491 35.012C114.678 35.012 116.06 33.6327 116.52 32.8281L114.908 31.6786C114.333 32.4832 113.642 33.0579 112.491 33.0579C111.34 33.0579 110.649 32.5982 110.074 31.5637L116.635 28.805L116.405 28.2303ZM109.728 29.8395C109.728 28.0004 111.225 26.9659 112.261 26.9659C113.067 26.9659 113.872 27.4257 114.103 28.0004L109.728 29.8395ZM104.318 34.5522H106.505V20.1841H104.318V34.5522ZM100.864 26.1613C100.289 25.5865 99.3679 25.0118 98.2168 25.0118C95.7994 25.0118 93.4971 27.1958 93.4971 29.9544C93.4971 32.7131 95.6842 34.7821 98.2168 34.7821C99.3679 34.7821 100.289 34.2074 100.749 33.6327H100.864V34.3223C100.864 36.1615 99.8284 37.196 98.2168 37.196C96.9505 37.196 96.0296 36.2764 95.7994 35.4718L93.9575 36.2764C94.5331 37.5408 95.9145 39.15 98.3319 39.15C100.864 39.15 102.936 37.6557 102.936 34.0924V25.3567H100.864V26.1613ZM98.3319 32.943C96.8354 32.943 95.5691 31.6786 95.5691 29.9544C95.5691 28.2303 96.8354 26.9659 98.3319 26.9659C99.8284 26.9659 100.98 28.2303 100.98 29.9544C100.98 31.6786 99.8284 32.943 98.3319 32.943ZM126.42 20.1841H121.24V34.5522H123.427V29.1498H126.42C128.837 29.1498 131.14 27.4257 131.14 24.667C131.14 21.9083 128.837 20.1841 126.42 20.1841ZM126.535 27.0808H123.427V22.1382H126.535C128.147 22.1382 129.068 23.5175 129.068 24.552C128.952 25.8164 128.032 27.0808 126.535 27.0808ZM139.773 25.0118C138.162 25.0118 136.55 25.7015 135.974 27.1958L137.931 28.0004C138.392 27.1958 139.083 26.9659 139.888 26.9659C141.04 26.9659 142.076 27.6555 142.191 28.805V28.9199C141.845 28.69 140.924 28.3452 140.003 28.3452C137.931 28.3452 135.859 29.4947 135.859 31.5637C135.859 33.5177 137.586 34.7821 139.428 34.7821C140.924 34.7821 141.615 34.0924 142.191 33.4028H142.306V34.5522H144.378V29.0349C144.148 26.5061 142.191 25.0118 139.773 25.0118ZM139.543 32.943C138.852 32.943 137.816 32.5982 137.816 31.6786C137.816 30.5292 139.083 30.1843 140.119 30.1843C141.04 30.1843 141.5 30.4142 142.076 30.6441C141.845 32.0234 140.694 32.943 139.543 32.943ZM151.63 25.3567L149.213 31.5637H149.098L146.565 25.3567H144.263L148.062 34.0924L145.874 38.9201H148.062L153.932 25.3567H151.63ZM132.291 34.5522H134.478V20.1841H132.291V34.5522Z" fill="#038C73"/>
<path d="M21.205 8.68976C20.8596 9.03459 20.7445 9.60932 20.7445 10.299V35.7018C20.7445 36.3914 20.9747 36.9661 21.3201 37.311L21.4352 37.4259L35.7095 23.1728V23.0578V22.9429L21.205 8.68976Z" fill="#038C73"/>
<path d="M40.314 28.0005L35.5943 23.2878V23.0579V22.943L40.314 18.2302L40.4292 18.3452L46.0698 21.5636C47.6814 22.4832 47.6814 23.9775 46.0698 24.897L40.314 28.0005Z" fill="#038C73"/>
<path d="M40.4292 27.8855L35.5944 23.0579L21.205 37.4259C21.7806 38.0007 22.5864 38.0007 23.6224 37.5409L40.4292 27.8855Z" fill="#038C73"/>
<path d="M40.4292 18.2302L23.6224 8.6898C22.5864 8.11508 21.7806 8.23002 21.205 8.80475L35.5944 23.0579L40.4292 18.2302Z" fill="#038C73"/>
<path opacity="0.2" d="M40.3141 27.7706L23.6224 37.1961C22.7015 37.7708 21.8957 37.6559 21.3201 37.1961L21.205 37.311L21.3201 37.426C21.8957 37.8858 22.7015 38.0007 23.6224 37.426L40.3141 27.7706Z" fill="#038C73"/>
<path opacity="0.12" d="M21.205 37.1961C20.8596 36.8512 20.7445 36.2765 20.7445 35.5869V35.7018C20.7445 36.3915 20.9747 36.9662 21.3201 37.311V37.1961H21.205Z" fill="#038C73"/>
<path opacity="0.12" d="M46.0698 24.5521L40.3141 27.7706L40.4292 27.8855L46.0698 24.6671C46.8756 24.2073 47.221 23.6326 47.221 23.0579C47.221 23.6326 46.7605 24.0924 46.0698 24.5521Z" fill="#038C73"/>
<path opacity="0.25" d="M23.6224 8.80472L46.0698 21.5636C46.7605 22.0234 47.2209 22.4831 47.2209 23.0579C47.2209 22.4831 46.8756 21.9084 46.0698 21.4486L23.6224 8.68978C22.0108 7.77022 20.7445 8.45989 20.7445 10.299V10.4139C20.7445 8.68978 22.0108 7.88516 23.6224 8.80472Z" fill="#038C73"/>
<path d="M57.6964 16.5059H56.8906V14.2071H57.5813C58.1568 13.7473 58.5022 12.8277 58.5022 11.5633V8.11499H63.1068V14.2071H63.9126V16.5059H63.1068V15.0117H57.8115V16.5059H57.6964ZM59.308 11.5633C59.308 12.5978 59.0777 13.5174 58.6173 14.2071H62.0707V8.9196H59.1929V11.5633H59.308Z" fill="#038C73" stroke="#038C73" stroke-width="0.2" stroke-miterlimit="10"/>
<path d="M70.7043 14.0921C70.0136 14.7817 69.2078 15.1266 68.1718 15.1266C67.1358 15.1266 66.33 14.7817 65.6393 14.0921C64.9486 13.4024 64.6032 12.5978 64.6032 11.5633C64.6032 10.5288 64.9486 9.72417 65.6393 9.0345C66.33 8.34483 67.1358 8 68.1718 8C69.2078 8 70.0136 8.34483 70.7043 9.0345C71.395 9.72417 71.7404 10.5288 71.7404 11.5633C71.7404 12.5978 71.395 13.4024 70.7043 14.0921ZM66.33 13.5173C66.7904 13.9771 67.4811 14.322 68.1718 14.322C68.8625 14.322 69.5532 14.0921 70.0136 13.5173C70.4741 13.0576 70.8194 12.3679 70.8194 11.5633C70.8194 10.7587 70.5892 10.069 70.0136 9.60923C69.5532 9.14945 68.8625 8.80461 68.1718 8.80461C67.4811 8.80461 66.7904 9.0345 66.33 9.60923C65.8695 10.069 65.5242 10.7587 65.5242 11.5633C65.5242 12.3679 65.7544 13.0576 66.33 13.5173Z" fill="#038C73" stroke="#038C73" stroke-width="0.2" stroke-miterlimit="10"/>
<path d="M76.2298 15.1266C75.1938 15.1266 74.388 14.7817 73.6973 14.0921C73.0066 13.4024 72.6613 12.5978 72.6613 11.5633C72.6613 10.5288 73.0066 9.72417 73.6973 9.0345C74.388 8.34483 75.1938 8 76.2298 8C77.2659 8 78.0717 8.34483 78.7624 9.14945L78.1868 9.72417C77.7263 9.14945 77.0357 8.80461 76.2298 8.80461C75.424 8.80461 74.8485 9.0345 74.2729 9.60923C73.6973 10.069 73.4671 10.7587 73.4671 11.5633C73.4671 12.3679 73.6973 13.0576 74.2729 13.5173C74.7334 13.9771 75.424 14.322 76.2298 14.322C77.0357 14.322 77.7263 13.9771 78.3019 13.2875L78.8775 13.8622C78.5321 14.207 78.1868 14.5518 77.7263 14.7817C77.2659 15.0116 76.8054 15.1266 76.2298 15.1266Z" fill="#038C73" stroke="#038C73" stroke-width="0.2" stroke-miterlimit="10"/>
<path d="M82.5612 15.0117H81.6403V8.9196H79.6833V8.11499H84.4031V8.9196H82.4461V15.0117H82.5612Z" fill="#038C73" stroke="#038C73" stroke-width="0.2" stroke-miterlimit="10"/>
<path d="M90.5041 8.11499L87.8565 13.9772C87.5111 14.7818 86.9356 15.2416 86.2449 15.2416C86.0146 15.2416 85.7844 15.2416 85.5542 15.1266L85.7844 14.322C85.8995 14.4369 86.1298 14.4369 86.2449 14.4369C86.4751 14.4369 86.5902 14.4369 86.7053 14.322C86.8204 14.2071 86.9356 14.0921 87.0507 13.8622L87.2809 13.2875L84.9786 8.22993H86.0146L87.7414 12.1381L89.4681 8.11499H90.5041Z" fill="#038C73" stroke="#038C73" stroke-width="0.2" stroke-miterlimit="10"/>
<path d="M91.5402 15.0117V8.11499H96.4901V15.0117H95.5692V8.9196H92.346V15.0117H91.5402Z" fill="#038C73" stroke="#038C73" stroke-width="0.2" stroke-miterlimit="10"/>
<path d="M98.1017 15.0117V8.11499H99.0226V11.1036H102.476V8.11499H103.397V15.0117H102.476V11.9082H99.0226V15.0117H98.1017Z" fill="#038C73" stroke="#038C73" stroke-width="0.2" stroke-miterlimit="10"/>
<path d="M110.649 14.0921C109.959 14.7817 109.153 15.1266 108.117 15.1266C107.081 15.1266 106.275 14.7817 105.584 14.0921C104.893 13.4024 104.548 12.5978 104.548 11.5633C104.548 10.5288 104.893 9.72417 105.584 9.0345C106.275 8.34483 107.081 8 108.117 8C109.153 8 109.959 8.34483 110.649 9.0345C111.34 9.72417 111.685 10.5288 111.685 11.5633C111.57 12.5978 111.225 13.4024 110.649 14.0921ZM106.16 13.5173C106.62 13.9771 107.311 14.322 108.002 14.322C108.692 14.322 109.383 14.0921 109.843 13.5173C110.304 13.0576 110.649 12.3679 110.649 11.5633C110.649 10.7587 110.419 10.069 109.843 9.60923C109.383 9.14945 108.692 8.80461 108.002 8.80461C107.311 8.80461 106.62 9.0345 106.16 9.60923C105.699 10.069 105.354 10.7587 105.354 11.5633C105.354 12.3679 105.699 13.0576 106.16 13.5173Z" fill="#038C73" stroke="#038C73" stroke-width="0.2" stroke-miterlimit="10"/>
<path d="M115.254 15.0117V8.11499H117.786C118.362 8.11499 118.822 8.34488 119.168 8.68971C119.513 9.03455 119.743 9.49433 119.743 9.95411C119.743 10.2989 119.628 10.5288 119.513 10.8737C119.398 11.1036 119.168 11.3334 118.822 11.4484C119.168 11.5633 119.398 11.7932 119.628 12.0231C119.858 12.253 119.974 12.5978 119.974 13.0576C119.974 13.6323 119.743 14.0921 119.398 14.4369C118.938 14.7818 118.477 15.0117 117.901 15.0117H115.254ZM116.175 11.1036H117.786C118.132 11.1036 118.362 10.9886 118.592 10.7587C118.822 10.5288 118.938 10.2989 118.938 10.069C118.938 9.83916 118.707 9.49433 118.592 9.26444C118.362 9.03455 118.132 8.9196 117.786 8.9196H116.175V11.1036ZM116.175 14.2071H118.017C118.362 14.2071 118.592 14.0921 118.822 13.8622C119.053 13.6323 119.168 13.4024 119.168 13.0576C119.168 12.8277 119.053 12.4829 118.822 12.253C118.592 12.0231 118.362 11.9082 118.017 11.9082H116.29V14.2071H116.175Z" fill="#038C73" stroke="#038C73" stroke-width="0.2" stroke-miterlimit="10"/>
<rect x="1.24451" y="0.5" width="172.188" height="46.15" rx="23.075" stroke="#038C73"/>
</svg>
