<svg width="143" height="40" viewBox="0 0 143 40" fill="none" xmlns="http://www.w3.org/2000/svg">
<path d="M71.5301 21.1956C69.4014 21.1956 67.7163 22.7897 67.7163 25.0037C67.7163 27.1291 69.4014 28.8118 71.5301 28.8118C73.6587 28.8118 75.3438 27.2177 75.3438 25.0037C75.3438 22.7011 73.6587 21.1956 71.5301 21.1956ZM71.5301 27.2177C70.3771 27.2177 69.4014 26.2435 69.4014 24.9151C69.4014 23.5867 70.3771 22.6125 71.5301 22.6125C72.6831 22.6125 73.6587 23.4981 73.6587 24.9151C73.6587 26.2435 72.6831 27.2177 71.5301 27.2177ZM63.2817 21.1956C61.1531 21.1956 59.4679 22.7897 59.4679 25.0037C59.4679 27.1291 61.1531 28.8118 63.2817 28.8118C65.4103 28.8118 67.0955 27.2177 67.0955 25.0037C67.0955 22.7011 65.4103 21.1956 63.2817 21.1956ZM63.2817 27.2177C62.1287 27.2177 61.1531 26.2435 61.1531 24.9151C61.1531 23.5867 62.1287 22.6125 63.2817 22.6125C64.4347 22.6125 65.4103 23.4981 65.4103 24.9151C65.4103 26.2435 64.4347 27.2177 63.2817 27.2177ZM53.4369 22.3469V23.941H57.2506C57.1619 24.8266 56.8072 25.5351 56.3637 25.9779C55.8316 26.5092 54.9446 27.1291 53.4369 27.1291C51.0422 27.1291 49.2683 25.2694 49.2683 22.8782C49.2683 20.4871 51.1309 18.6273 53.4369 18.6273C54.6786 18.6273 55.6542 19.1587 56.3637 19.7786L57.5167 18.6273C56.5411 17.7417 55.2994 17.0332 53.5256 17.0332C50.3326 17.0332 47.5832 19.69 47.5832 22.8782C47.5832 26.0664 50.3326 28.7232 53.5256 28.7232C55.2994 28.7232 56.5411 28.1919 57.6054 27.0406C58.6697 25.9779 59.0245 24.4723 59.0245 23.321C59.0245 22.9668 59.0245 22.6125 58.9358 22.3469H53.4369ZM93.7031 23.5867C93.3483 22.7011 92.4614 21.1956 90.5102 21.1956C88.5589 21.1956 86.9625 22.7011 86.9625 25.0037C86.9625 27.1291 88.5589 28.8118 90.6875 28.8118C92.3727 28.8118 93.437 27.7491 93.7918 27.1291L92.5501 26.2435C92.1066 26.8635 91.5745 27.3063 90.6875 27.3063C89.8006 27.3063 89.2685 26.952 88.825 26.155L93.8805 24.0295L93.7031 23.5867ZM88.5589 24.8266C88.5589 23.4096 89.7119 22.6125 90.5102 22.6125C91.131 22.6125 91.7519 22.9668 91.9292 23.4096L88.5589 24.8266ZM84.3904 28.4576H86.0756V17.3874H84.3904V28.4576ZM81.7296 21.9926C81.2862 21.5498 80.5767 21.107 79.6897 21.107C77.8272 21.107 76.0534 22.7897 76.0534 24.9151C76.0534 27.0406 77.7385 28.6347 79.6897 28.6347C80.5767 28.6347 81.2862 28.1919 81.641 27.7491H81.7296V28.2804C81.7296 29.6974 80.9314 30.4945 79.6897 30.4945C78.7141 30.4945 78.0046 29.786 77.8272 29.166L76.4081 29.786C76.8516 30.7601 77.9159 32 79.7784 32C81.7296 32 83.3261 30.8487 83.3261 28.1033V21.3727H81.7296V21.9926ZM79.7784 27.2177C78.6254 27.2177 77.6498 26.2435 77.6498 24.9151C77.6498 23.5867 78.6254 22.6125 79.7784 22.6125C80.9314 22.6125 81.8183 23.5867 81.8183 24.9151C81.8183 26.2435 80.9314 27.2177 79.7784 27.2177ZM101.419 17.3874H97.4282V28.4576H99.1133V24.2952H101.419C103.282 24.2952 105.056 22.9668 105.056 20.8413C105.056 18.7159 103.282 17.3874 101.419 17.3874ZM101.508 22.7011H99.1133V18.893H101.508C102.75 18.893 103.459 19.9557 103.459 20.7528C103.371 21.7269 102.661 22.7011 101.508 22.7011ZM111.708 21.107C110.466 21.107 109.224 21.6384 108.781 22.7897L110.289 23.4096C110.643 22.7897 111.175 22.6125 111.796 22.6125C112.683 22.6125 113.481 23.1439 113.57 24.0295V24.1181C113.304 23.941 112.594 23.6753 111.885 23.6753C110.289 23.6753 108.692 24.5609 108.692 26.155C108.692 27.6605 110.022 28.6347 111.441 28.6347C112.594 28.6347 113.127 28.1033 113.57 27.5719H113.659V28.4576H115.255V24.2066C115.078 22.2583 113.57 21.107 111.708 21.107ZM111.53 27.2177C110.998 27.2177 110.2 26.952 110.2 26.2435C110.2 25.3579 111.175 25.0922 111.974 25.0922C112.683 25.0922 113.038 25.2694 113.481 25.4465C113.304 26.5092 112.417 27.2177 111.53 27.2177ZM120.843 21.3727L118.98 26.155H118.892L116.94 21.3727H115.167L118.093 28.1033L116.408 31.8229H118.093L122.617 21.3727H120.843ZM105.943 28.4576H107.628V17.3874H105.943V28.4576Z" fill="white"/>
<path d="M20.3548 8.53137C20.0887 8.79705 20 9.23986 20 9.77122V29.3432C20 29.8745 20.1774 30.3174 20.4435 30.583L20.5322 30.6716L31.53 19.69V19.6015V19.5129L20.3548 8.53137Z" fill="white"/>
<path d="M35.0777 23.4098L31.4413 19.7788V19.6016V19.5131L35.0777 15.8821L35.1664 15.9706L39.5123 18.4503C40.754 19.1588 40.754 20.3101 39.5123 21.0186L35.0777 23.4098Z" fill="white"/>
<path d="M35.1664 23.3211L31.4413 19.6016L20.3548 30.6717C20.7983 31.1145 21.4191 31.1145 22.2173 30.7602L35.1664 23.3211Z" fill="white"/>
<path d="M35.1664 15.882L22.2173 8.53148C21.4191 8.08867 20.7983 8.17723 20.3548 8.62004L31.4413 19.6016L35.1664 15.882Z" fill="white"/>
<path opacity="0.2" d="M35.0777 23.2325L22.2173 30.4945C21.5078 30.9373 20.887 30.8488 20.4435 30.4945L20.3548 30.5831L20.4435 30.6717C20.887 31.0259 21.5078 31.1145 22.2173 30.6717L35.0777 23.2325Z" fill="white"/>
<path opacity="0.12" d="M20.3548 30.4945C20.0887 30.2288 20 29.786 20 29.2546V29.3432C20 29.8746 20.1774 30.3174 20.4435 30.5831V30.4945H20.3548Z" fill="white"/>
<path opacity="0.12" d="M39.5122 20.7529L35.0776 23.2326L35.1663 23.3211L39.5122 20.8414C40.1331 20.4872 40.3992 20.0444 40.3992 19.6016C40.3992 20.0444 40.0444 20.3986 39.5122 20.7529Z" fill="white"/>
<path opacity="0.25" d="M22.2173 8.62001L39.5123 18.4503C40.0444 18.8045 40.3992 19.1588 40.3992 19.6016C40.3992 19.1588 40.1331 18.7159 39.5123 18.3617L22.2173 8.53145C20.9756 7.82296 20 8.35432 20 9.7713V9.85986C20 8.53145 20.9756 7.91152 22.2173 8.62001Z" fill="white"/>
<path d="M48.4701 14.5536H47.8493V12.7823H48.3815C48.8249 12.4281 49.091 11.7196 49.091 10.7454V8.08862H52.6387V12.7823H53.2595V14.5536H52.6387V13.4023H48.5588V14.5536H48.4701ZM49.7118 10.7454C49.7118 11.5425 49.5345 12.251 49.1797 12.7823H51.8404V8.70855H49.6231V10.7454H49.7118Z" fill="white" stroke="white" stroke-width="0.2" stroke-miterlimit="10"/>
<path d="M58.4924 12.6937C57.9602 13.2251 57.3394 13.4908 56.5411 13.4908C55.7429 13.4908 55.1221 13.2251 54.5899 12.6937C54.0578 12.1624 53.7917 11.5424 53.7917 10.7454C53.7917 9.94834 54.0578 9.32841 54.5899 8.79705C55.1221 8.26568 55.7429 8 56.5411 8C57.3394 8 57.9602 8.26568 58.4924 8.79705C59.0245 9.32841 59.2906 9.94834 59.2906 10.7454C59.2906 11.5424 59.0245 12.1624 58.4924 12.6937ZM55.1221 12.2509C55.4768 12.6052 56.009 12.8708 56.5411 12.8708C57.0733 12.8708 57.6054 12.6937 57.9602 12.2509C58.315 11.8967 58.5811 11.3653 58.5811 10.7454C58.5811 10.1255 58.4037 9.5941 57.9602 9.23985C57.6054 8.88561 57.0733 8.61993 56.5411 8.61993C56.009 8.61993 55.4768 8.79705 55.1221 9.23985C54.7673 9.5941 54.5012 10.1255 54.5012 10.7454C54.5012 11.3653 54.6786 11.8967 55.1221 12.2509Z" fill="white" stroke="white" stroke-width="0.2" stroke-miterlimit="10"/>
<path d="M62.7496 13.4908C61.9513 13.4908 61.3305 13.2251 60.7984 12.6937C60.2662 12.1624 60.0001 11.5424 60.0001 10.7454C60.0001 9.94834 60.2662 9.32841 60.7984 8.79705C61.3305 8.26568 61.9513 8 62.7496 8C63.5478 8 64.1687 8.26568 64.7008 8.88561L64.2573 9.32841C63.9026 8.88561 63.3704 8.61993 62.7496 8.61993C62.1287 8.61993 61.6853 8.79705 61.2418 9.23985C60.7984 9.5941 60.621 10.1255 60.621 10.7454C60.621 11.3653 60.7984 11.8967 61.2418 12.2509C61.5966 12.6052 62.1287 12.8708 62.7496 12.8708C63.3704 12.8708 63.9026 12.6052 64.346 12.0738L64.7895 12.5166C64.5234 12.7823 64.2573 13.048 63.9026 13.2251C63.5478 13.4022 63.193 13.4908 62.7496 13.4908Z" fill="white" stroke="white" stroke-width="0.2" stroke-miterlimit="10"/>
<path d="M67.6276 13.4023H66.9181V8.70855H65.4103V8.08862H69.0467V8.70855H67.5389V13.4023H67.6276Z" fill="white" stroke="white" stroke-width="0.2" stroke-miterlimit="10"/>
<path d="M73.7474 8.08862L71.7075 12.6052C71.4414 13.2252 70.9979 13.5794 70.4658 13.5794C70.2884 13.5794 70.111 13.5794 69.9336 13.4908L70.111 12.8709C70.1997 12.9595 70.3771 12.9595 70.4658 12.9595C70.6432 12.9595 70.7319 12.9595 70.8206 12.8709C70.9092 12.7823 70.9979 12.6938 71.0866 12.5167L71.264 12.0739L69.4902 8.17718H70.2884L71.6188 11.1883L72.9492 8.08862H73.7474Z" fill="white" stroke="white" stroke-width="0.2" stroke-miterlimit="10"/>
<path d="M74.5457 13.4023V8.08862H78.3594V13.4023H77.6499V8.70855H75.1665V13.4023H74.5457Z" fill="white" stroke="white" stroke-width="0.2" stroke-miterlimit="10"/>
<path d="M79.6011 13.4023V8.08862H80.3106V10.3912H82.9714V8.08862H83.6809V13.4023H82.9714V11.0111H80.3106V13.4023H79.6011Z" fill="white" stroke="white" stroke-width="0.2" stroke-miterlimit="10"/>
<path d="M89.2685 12.6937C88.7363 13.2251 88.1155 13.4908 87.3173 13.4908C86.519 13.4908 85.8982 13.2251 85.366 12.6937C84.8339 12.1624 84.5678 11.5424 84.5678 10.7454C84.5678 9.94834 84.8339 9.32841 85.366 8.79705C85.8982 8.26568 86.519 8 87.3173 8C88.1155 8 88.7363 8.26568 89.2685 8.79705C89.8006 9.32841 90.0667 9.94834 90.0667 10.7454C89.978 11.5424 89.7119 12.1624 89.2685 12.6937ZM85.8095 12.2509C86.1643 12.6052 86.6964 12.8708 87.2286 12.8708C87.7607 12.8708 88.2929 12.6937 88.6476 12.2509C89.0024 11.8967 89.2685 11.3653 89.2685 10.7454C89.2685 10.1255 89.0911 9.5941 88.6476 9.23985C88.2929 8.88561 87.7607 8.61993 87.2286 8.61993C86.6964 8.61993 86.1643 8.79705 85.8095 9.23985C85.4547 9.5941 85.1887 10.1255 85.1887 10.7454C85.1887 11.3653 85.4547 11.8967 85.8095 12.2509Z" fill="white" stroke="white" stroke-width="0.2" stroke-miterlimit="10"/>
<path d="M92.8162 13.4023V8.08862H94.7674C95.2108 8.08862 95.5656 8.26574 95.8317 8.53143C96.0978 8.79711 96.2751 9.15135 96.2751 9.5056C96.2751 9.77128 96.1865 9.9484 96.0978 10.2141C96.0091 10.3912 95.8317 10.5683 95.5656 10.6569C95.8317 10.7454 96.0091 10.9226 96.1865 11.0997C96.3638 11.2768 96.4525 11.5425 96.4525 11.8967C96.4525 12.3395 96.2751 12.6938 96.0091 12.9595C95.6543 13.2252 95.2995 13.4023 94.8561 13.4023H92.8162ZM93.5257 10.3912H94.7674C95.0335 10.3912 95.2108 10.3026 95.3882 10.1255C95.5656 9.9484 95.6543 9.77128 95.6543 9.59416C95.6543 9.41704 95.4769 9.15135 95.3882 8.97423C95.2108 8.79711 95.0335 8.70855 94.7674 8.70855H93.5257V10.3912ZM93.5257 12.7824H94.9448C95.2108 12.7824 95.3882 12.6938 95.5656 12.5167C95.743 12.3395 95.8317 12.1624 95.8317 11.8967C95.8317 11.7196 95.743 11.4539 95.5656 11.2768C95.3882 11.0997 95.2108 11.0111 94.9448 11.0111H93.6144V12.7824H93.5257Z" fill="white" stroke="white" stroke-width="0.2" stroke-miterlimit="10"/>
<rect x="0.5" y="0.5" width="141.617" height="39" rx="19.5" stroke="white"/>
</svg>
