<svg width="50" height="60" viewBox="0 0 50 60" fill="none" xmlns="http://www.w3.org/2000/svg">
<path d="M50 25C50 34.0456 45.1959 41.9691 38 46.3584C34.2121 48.6688 29.7615 50 25 50C20.2385 50 15.7879 48.6688 12 46.3584C4.80408 41.9691 0 34.0456 0 25C0 11.1929 11.1929 0 25 0C38.8071 0 50 11.1929 50 25Z" fill="#F65E64"/>
<path d="M25 50C20.2385 50 15.7879 48.6688 12 46.3584L25 59.5L38 46.3584C34.2121 48.6688 29.7615 50 25 50Z" fill="#F65E64"/>
<circle cx="25" cy="25" r="22" fill="white"/>
<path d="M29.6627 22.1543L21.4159 13L18.6652 15.4772L27.1715 24.9195L29.6627 22.1543Z" fill="#038C73"/>
<path d="M29.6629 22.1544L18.6 34.4339L21.3507 36.9111L32.1517 24.9172L29.6629 22.1544Z" fill="#F65E64"/>
</svg>
