<svg width="50" height="60" viewBox="0 0 50 60" fill="none" xmlns="http://www.w3.org/2000/svg">
<path d="M50 25C50 34.0456 45.1959 41.9691 38 46.3584C34.2121 48.6688 29.7615 50 25 50C20.2385 50 15.7879 48.6688 12 46.3584C4.80408 41.9691 0 34.0456 0 25C0 11.1929 11.1929 0 25 0C38.8071 0 50 11.1929 50 25Z" fill="#F65E64"/>
<path d="M25 50C20.2385 50 15.7879 48.6688 12 46.3584L25 59.5L38 46.3584C34.2121 48.6688 29.7615 50 25 50Z" fill="#F65E64"/>
<circle cx="25" cy="25" r="22" fill="white"/>
<path fill-rule="evenodd" clip-rule="evenodd" d="M33.1861 25.6154C33.1861 28.5385 31.6607 31.1538 29.2201 32.4872L28.6608 32.7436C28.4574 32.8462 28.254 32.8974 28.0506 32.8974C27.6439 32.8974 27.3896 32.7436 27.1862 32.4359C27.0337 32.1795 26.9828 31.9231 27.0337 31.6154C27.1354 31.2051 27.4405 31 27.5422 30.9487C28.9659 30.2821 29.932 28.7949 29.932 27.2051V22.9487C29.932 21.3077 29.0167 19.8205 27.593 19.2051C27.593 19.2051 27.1862 19 27.0845 18.4872C27.0337 18.1795 27.0845 17.9231 27.2371 17.6667C27.4405 17.359 27.7455 17.2051 28.1015 17.2051C28.3049 17.2051 28.5082 17.2564 28.6608 17.359C28.6608 17.359 29.1693 17.6154 29.2201 17.6154C31.6607 18.8974 33.1861 21.5641 33.1861 24.4872V25.6154ZM22.5083 30.8974C22.61 30.9487 22.9151 31.1538 23.0168 31.5641C23.0676 31.8718 23.0168 32.1282 22.9151 32.3846C22.7117 32.6923 22.4066 32.8462 22.0507 32.8462C21.8473 32.8462 21.6439 32.7949 21.4406 32.6923L20.8304 32.4872C18.3898 31.2051 16.8643 28.5385 16.8643 25.6154V24.3846C16.8643 21.4615 18.3898 18.8462 20.8304 17.5128L21.3897 17.2564C21.5931 17.1538 21.7965 17.1026 21.9999 17.1026C22.4066 17.1026 22.7117 17.2564 22.8643 17.5641C23.0168 17.8205 23.0676 18.0769 22.966 18.3846C22.8643 18.8462 22.4575 19.0513 22.4575 19.1026C21.0338 19.7692 20.1185 21.2051 20.1185 22.8462V27.1026C20.1185 28.7949 21.0338 30.2821 22.5083 30.8974ZM24.9998 13C18.3898 13 13 18.3846 13 25C13 31.6154 18.3898 37 24.9998 37C31.6607 37 36.9996 31.6154 36.9996 25C37.0505 18.3846 31.6607 13 24.9998 13Z" fill="#00B4E3"/>
</svg>
