<svg width="47" height="30" viewBox="0 0 47 30" fill="none" xmlns="http://www.w3.org/2000/svg">
<path d="M42.3358 0H4.16429C4.00531 0 3.84605 0 3.68736 0.00093427C3.55321 0.00189685 3.41937 0.00339735 3.28554 0.0070778C2.99365 0.0150333 2.69926 0.032388 2.41103 0.0845939C2.11819 0.137706 1.84568 0.224338 1.57984 0.360741C1.31849 0.494682 1.07922 0.669872 0.871865 0.878921C0.664423 1.08797 0.490583 1.3287 0.357703 1.59236C0.222322 1.86027 0.136301 2.13498 0.0839635 2.43032C0.0318817 2.72088 0.0145455 3.01749 0.00667942 3.31134C0.0030835 3.44621 0.00154119 3.58108 0.000667492 3.71593C-0.00025958 3.8762 4.94439e-05 4.03636 4.94439e-05 4.19691V25.8034C4.94439e-05 25.964 -0.00025958 26.1238 0.000667492 26.2844C0.00154119 26.4193 0.0030835 26.5541 0.00667942 26.689C0.0145455 26.9826 0.0318817 27.2792 0.0839635 27.5697C0.136301 27.8651 0.222322 28.1397 0.357703 28.4077C0.490583 28.6713 0.664423 28.9124 0.871865 29.1211C1.07922 29.3305 1.31849 29.5057 1.57984 29.6393C1.84568 29.776 2.11819 29.8627 2.41103 29.9158C2.69926 29.9676 2.99365 29.9853 3.28554 29.9933C3.41937 29.9963 3.55321 29.9981 3.68736 29.9988C3.84605 30 4.00531 30 4.16429 30H42.3358C42.4945 30 42.6537 30 42.8124 29.9988C42.9462 29.9981 43.0801 29.9963 43.2145 29.9933C43.5058 29.9853 43.8001 29.9676 44.0891 29.9158C44.3815 29.8627 44.6541 29.776 44.9199 29.6393C45.1816 29.5057 45.4201 29.3305 45.6279 29.1211C45.835 28.9124 46.0088 28.6713 46.1421 28.4077C46.2778 28.1397 46.3637 27.8651 46.4158 27.5697C46.4679 27.2792 46.4848 26.9826 46.4927 26.689C46.4963 26.5541 46.4981 26.4193 46.4988 26.2844C46.5 26.1238 46.5 25.964 46.5 25.8034V4.19691C46.5 4.03636 46.5 3.8762 46.4988 3.71593C46.4981 3.58108 46.4963 3.44621 46.4927 3.31134C46.4848 3.01749 46.4679 2.72088 46.4158 2.43032C46.3637 2.13498 46.2778 1.86027 46.1421 1.59236C46.0088 1.3287 45.835 1.08797 45.6279 0.878921C45.4201 0.669872 45.1816 0.494682 44.9199 0.360741C44.6541 0.224338 44.3815 0.137706 44.0891 0.0845939C43.8001 0.032388 43.5058 0.0150333 43.2145 0.0070778C43.0801 0.00339735 42.9462 0.00189685 42.8124 0.00093427C42.6537 0 42.4945 0 42.3358 0Z" fill="black"/>
<path d="M42.3358 1L42.8054 1.00091C42.9326 1.00181 43.0598 1.0032 43.1877 1.00671C43.4102 1.01277 43.6705 1.02491 43.9131 1.06874C44.124 1.10702 44.3009 1.16522 44.4706 1.25231C44.6382 1.33812 44.7917 1.45057 44.9258 1.58548C45.0603 1.72128 45.1721 1.87626 45.2583 2.04701C45.3443 2.21673 45.4017 2.39413 45.4394 2.60822C45.4828 2.85005 45.4948 3.11306 45.5009 3.33868C45.5043 3.46602 45.506 3.59336 45.5066 3.72374C45.5078 3.8814 45.5078 4.03898 45.5078 4.19696V25.8035C45.5078 25.9614 45.5078 26.1187 45.5066 26.2798C45.506 26.4071 45.5043 26.5344 45.5009 26.662C45.4948 26.8873 45.4828 27.1501 45.4389 27.3948C45.4017 27.606 45.3443 27.7834 45.2579 27.954C45.1719 28.1243 45.0603 28.2791 44.9263 28.4141C44.7915 28.55 44.6385 28.6621 44.4689 28.7487C44.3004 28.8353 44.1239 28.8935 43.9151 28.9314C43.6675 28.9758 43.3963 28.988 43.1921 28.9936C43.0636 28.9965 42.9357 28.9983 42.8047 28.9989C42.6486 29.0001 42.4919 29.0001 42.3358 29.0001H4.16433C4.16225 29.0001 4.16023 29.0001 4.15812 29.0001C4.00378 29.0001 3.84913 29.0001 3.69197 28.9989C3.56384 28.9983 3.43599 28.9966 3.31238 28.9937C3.10348 28.988 2.83213 28.9758 2.58662 28.9316C2.37601 28.8935 2.19944 28.8353 2.02875 28.7475C1.86078 28.6617 1.70787 28.5497 1.57299 28.4135C1.43916 28.2789 1.32794 28.1246 1.24194 27.954C1.15587 27.7836 1.09828 27.6056 1.06041 27.392C1.01664 27.1478 1.00461 26.8859 0.998605 26.6622C0.995175 26.5341 0.993742 26.406 0.992928 26.2787L0.99231 25.9027L0.992338 25.8035V4.19696L0.99231 4.0977L0.9929 3.72255C0.993742 3.59444 0.995175 3.46636 0.998605 3.33836C1.00461 3.11439 1.01664 2.85246 1.06077 2.60621C1.0983 2.39447 1.15587 2.2165 1.24239 2.04525C1.32771 1.87598 1.43913 1.72145 1.57367 1.5859C1.70768 1.4508 1.86109 1.33849 2.03013 1.25186C2.19899 1.1652 2.3759 1.10702 2.58651 1.06882C2.82918 1.02489 3.08963 1.01277 3.31269 1.00668C3.43984 1.0032 3.56699 1.00181 3.69318 1.00093L4.16433 1H42.3358Z" fill="#F2F2F2"/>
<path d="M12.6943 10.0903C13.0924 9.5884 13.3626 8.91455 13.2914 8.22595C12.7085 8.25516 11.9973 8.61345 11.5855 9.11571C11.2158 9.54581 10.8886 10.2479 10.9739 10.9076C11.6281 10.9648 12.2818 10.578 12.6943 10.0903Z" fill="black"/>
<path d="M13.2839 11.0364C12.3338 10.9794 11.5259 11.5798 11.0722 11.5798C10.6182 11.5798 9.92335 11.0652 9.17184 11.079C8.1937 11.0935 7.2861 11.6508 6.78974 12.5373C5.7688 14.3106 6.52031 16.941 7.51312 18.3853C7.99525 19.0998 8.57629 19.8865 9.34191 19.8583C10.0653 19.8296 10.3488 19.3862 11.2281 19.3862C12.1068 19.3862 12.3622 19.8583 13.1279 19.844C13.922 19.8296 14.4185 19.1291 14.9006 18.4139C15.4537 17.5993 15.6801 16.8129 15.6943 16.7697C15.6801 16.7554 14.1631 16.1689 14.149 14.4104C14.1347 12.9379 15.34 12.2375 15.3968 12.1941C14.7161 11.1795 13.6526 11.0652 13.2839 11.0364Z" fill="black"/>
<path d="M21.557 9.0437C23.6221 9.0437 25.0601 10.4783 25.0601 12.5669C25.0601 14.6629 23.5925 16.1049 21.5052 16.1049H19.2187V19.7693H17.5668V9.0437H21.557V9.0437ZM19.2187 14.7075H21.1143C22.5526 14.7075 23.3712 13.9271 23.3712 12.5743C23.3712 11.2216 22.5526 10.4486 21.1217 10.4486H19.2187V14.7075Z" fill="black"/>
<path d="M25.4918 17.5469C25.4918 16.1792 26.5318 15.3393 28.3758 15.2352L30.4998 15.1089V14.5069C30.4998 13.6372 29.9171 13.117 28.9437 13.117C28.0216 13.117 27.4463 13.5628 27.3063 14.2616H25.8017C25.8902 12.8493 27.0849 11.8087 29.0026 11.8087C30.8834 11.8087 32.0855 12.8122 32.0855 14.3805V19.7693H30.5587V18.4834H30.522C30.0722 19.3531 29.0911 19.903 28.0734 19.903C26.554 19.903 25.4918 18.9516 25.4918 17.5469ZM30.4998 16.8408V16.2239L28.5895 16.3428C27.638 16.4097 27.0997 16.8334 27.0997 17.5023C27.0997 18.1861 27.6602 18.6321 28.5158 18.6321C29.6295 18.6321 30.4998 17.859 30.4998 16.8408Z" fill="black"/>
<path d="M33.5269 22.6459V21.3451C33.6447 21.3748 33.9101 21.3748 34.043 21.3748C34.7805 21.3748 35.1788 21.0626 35.4221 20.2599C35.4221 20.245 35.5624 19.7842 35.5624 19.7768L32.7598 11.95H34.4854L36.4475 18.3125H36.4769L38.439 11.95H40.1205L37.2144 20.178C36.5508 22.0735 35.7837 22.683 34.1759 22.683C34.043 22.683 33.6447 22.6681 33.5269 22.6459Z" fill="black"/>
</svg>
